SplineFontDB: 3.0
FontName: UniOl-Italic
FullName: UniOl Italic
FamilyName: UniOl
Weight: Regular
Copyright: Copyright (c) 2020 -2025, Dr Anirban Mitra
UComments: "2020-8-7: Created with FontForge (http://fontforge.org)"
Version: 002.000
ItalicAngle: 0
UnderlinePosition: -100
UnderlineWidth: 50
Ascent: 800
Descent: 200
InvalidEm: 0
LayerCount: 2
Layer: 0 1 "Back" 1
Layer: 1 1 "Fore" 0
XUID: [1021 162 -509335450 8305068]
StyleMap: 0x0001
FSType: 0
OS2Version: 0
OS2_WeightWidthSlopeOnly: 0
OS2_UseTypoMetrics: 1
CreationTime: 1596786230
ModificationTime: 1749715746
PfmFamily: 33
TTFWeight: 400
TTFWidth: 5
LineGap: 90
VLineGap: 0
OS2TypoAscent: 0
OS2TypoAOffset: 1
OS2TypoDescent: 0
OS2TypoDOffset: 1
OS2TypoLinegap: 90
OS2WinAscent: 0
OS2WinAOffset: 1
OS2WinDescent: 0
OS2WinDOffset: 1
HheadAscent: 0
HheadAOffset: 1
HheadDescent: 0
HheadDOffset: 1
OS2FamilyClass: 2063
OS2Vendor: 'anir'
MarkAttachClasses: 1
DEI: 91125

StartChar: uni1C50
Encoding: 256 7248 0
Width: 1149
VWidth: 2048
Flags: W
LayerCount: 2
Fore
SplineSet
511 408 m 0,0,1
 536 518 536 518 595.5 598 c 128,-1,2
 655 678 655 678 736 712 c 0,3,4
 786 733 786 733 843 734 c 256,5,6
 956 735 956 735 1007 647 c 0,7,8
 1060 557 1060 557 1025 408 c 0,9,10
 999 297 999 297 940 217 c 0,11,12
 882 139 882 139 800 102 c 0,13,14
 746 78 746 78 691 78 c 256,15,16
 577 79 577 79 528 168 c 0,17,18
 477 261 477 261 511 408 c 0,0,1
595 408 m 256,19,20
 585 365 585 365 583 326.5 c 128,-1,21
 581 288 581 288 587 256.5 c 128,-1,22
 593 225 593 225 607 200.5 c 128,-1,23
 621 176 621 176 643 161 c 0,24,25
 670 142 670 142 706 142 c 0,26,27
 780 142 780 142 846 214 c 0,28,29
 914 289 914 289 941 408 c 0,30,31
 961 495 961 495 948.5 559.5 c 128,-1,32
 936 624 936 624 892 653 c 0,33,34
 865 671 865 671 828 671 c 0,35,36
 754 671 754 671 690 601 c 0,37,38
 622 527 622 527 595 408 c 256,19,20
EndSplineSet
EndChar

StartChar: uni1C51
Encoding: 257 7249 1
Width: 1008
VWidth: 2048
Flags: W
LayerCount: 2
Fore
SplineSet
723 626 m 5,0,1
 681 561 681 561 655 451 c 0,2,3
 629 337 629 337 656 259.5 c 128,-1,4
 683 182 683 182 751 126 c 0,5,6
 801 86 801 86 876 54 c 1,7,-1
 875 51 l 1,8,-1
 824 -11 l 1,9,10
 749 14 749 14 694 54 c 128,-1,11
 639 94 639 94 603.5 155 c 128,-1,12
 568 216 568 216 559 292 c 0,13,14
 551 366 551 366 571 455 c 0,15,16
 597 567 597 567 662 679 c 0,17,18
 684 716 684 716 710 750 c 1,19,-1
 713 750 l 1,20,-1
 924 572 l 1,21,-1
 927 572 l 1,22,-1
 964 730 l 1,23,-1
 1047 730 l 1,24,-1
 976 421 l 1,25,-1
 972 421 l 1,26,-1
 726 626 l 1,27,-1
 723 626 l 5,0,1
EndSplineSet
EndChar

StartChar: uni1C52
Encoding: 258 7250 2
Width: 984
VWidth: 2048
Flags: W
LayerCount: 2
Fore
SplineSet
732 90 m 1,0,-1
 784 34 l 1,1,2
 712 -66 712 -66 634.5 -113.5 c 128,-1,3
 557 -161 557 -161 474 -161 c 0,4,5
 394 -161 394 -161 343 -123.5 c 128,-1,6
 292 -86 292 -86 278 -23 c 0,7,8
 268 20 268 20 280 73 c 0,9,10
 290 115 290 115 308.5 147 c 128,-1,11
 327 179 327 179 359 217 c 0,12,13
 392 257 392 257 442.5 305.5 c 128,-1,14
 493 354 493 354 564 421 c 1,15,16
 478 465 478 465 474 545 c 0,17,18
 473 569 473 569 478 592 c 0,19,20
 490 643 490 643 520.5 680 c 0,21,22
 551 718 551 718 593 736 c 0,23,24
 625 751 625 751 666 750 c 0,25,26
 703 750 703 750 729 737.5 c 128,-1,27
 755 725 755 725 769 703.5 c 128,-1,28
 783 682 783 682 787 652 c 0,29,30
 791 621 791 621 782 585 c 0,31,32
 770 531 770 531 730 481 c 0,33,34
 703 448 703 448 621 369 c 0,35,36
 552 302 552 302 506 256.5 c 128,-1,37
 460 211 460 211 431 177.5 c 128,-1,38
 402 144 402 144 387.5 119 c 128,-1,39
 373 94 373 94 367 69 c 0,40,41
 351 -1 351 -1 385.5 -38.5 c 128,-1,42
 420 -76 420 -76 489 -76 c 0,43,44
 544 -76 544 -76 587 -52 c 128,-1,45
 630 -28 630 -28 670 14 c 0,46,47
 699 46 699 46 729 90 c 1,48,-1
 732 90 l 1,0,-1
648 669 m 128,-1,50
 615 669 615 669 590 647 c 128,-1,51
 565 625 565 625 556 588 c 0,52,53
 545 542 545 542 583 508 c 0,54,55
 599 494 599 494 628 481 c 0,56,57
 629 482 629 482 637.5 490 c 128,-1,58
 646 498 646 498 647.5 500 c 128,-1,59
 649 502 649 502 656 509.5 c 128,-1,60
 663 517 663 517 665.5 520.5 c 128,-1,61
 668 524 668 524 674 531 c 128,-1,62
 680 538 680 538 682.5 543 c 128,-1,63
 685 548 685 548 688.5 555.5 c 128,-1,64
 692 563 692 563 694.5 570 c 128,-1,65
 697 577 697 577 699 585 c 0,66,67
 708 623 708 623 694.5 646 c 128,-1,49
 681 669 681 669 648 669 c 128,-1,50
EndSplineSet
EndChar

StartChar: uni1C53
Encoding: 259 7251 3
Width: 1028
VWidth: 2048
Flags: W
LayerCount: 2
Fore
SplineSet
721 594 m 4,0,1
 705 526 705 526 647 463 c 1,2,-1
 748 421 l 1,3,-1
 751 421 l 1,4,-1
 826 744 l 1,5,-1
 913 744 l 1,6,-1
 810 299 l 1,7,-1
 807 299 l 1,8,-1
 579 399 l 1,9,10
 482 314 482 314 441 263 c 0,11,12
 403 217 403 217 393 172 c 0,13,14
 382 123 382 123 396 90 c 128,-1,15
 410 57 410 57 444 31 c 0,16,17
 488 -3 488 -3 550 -25 c 128,-1,18
 612 -47 612 -47 705 -68 c 1,19,-1
 704 -71 l 1,20,-1
 647 -146 l 1,21,22
 452 -110 452 -110 367 -32 c 0,23,24
 276 51 276 51 305 177 c 0,25,26
 318 232 318 232 358 286 c 0,27,28
 404 349 404 349 503 434 c 1,29,30
 418 479 418 479 412 556 c 0,31,32
 410 580 410 580 416 603 c 0,33,34
 428 654 428 654 459 690.5 c 128,-1,35
 490 727 490 727 531 746 c 0,36,37
 563 761 563 761 604 761 c 0,38,39
 641 761 641 761 667 748.5 c 128,-1,40
 693 736 693 736 707.5 714 c 128,-1,41
 722 692 722 692 726 662 c 0,42,43
 730 632 730 632 721 594 c 4,0,1
586 680 m 4,44,45
 564 680 564 680 545.5 670 c 128,-1,46
 527 660 527 660 514 641.5 c 128,-1,47
 501 623 501 623 495 599 c 0,48,49
 489 573 489 573 497 556 c 128,-1,50
 505 539 505 539 524 522 c 0,51,52
 540 508 540 508 569 494 c 1,53,54
 599 523 599 523 615 546 c 128,-1,55
 631 569 631 569 637 595 c 0,56,57
 646 633 646 633 632.5 656.5 c 128,-1,58
 619 680 619 680 586 680 c 4,44,45
EndSplineSet
EndChar

StartChar: uni1C54
Encoding: 260 7252 4
Width: 986
VWidth: 2048
Flags: W
LayerCount: 2
Fore
SplineSet
784 351 m 1,0,1
 807 298 807 298 787 209 c 0,2,3
 769 130 769 130 723 73 c 128,-1,4
 677 16 677 16 615 -10 c 0,5,6
 572 -29 572 -29 522 -29 c 0,7,8
 413 -29 413 -29 361 55 c 0,9,10
 305 145 305 145 339 297 c 0,11,12
 374 450 374 450 489 602 c 0,13,14
 614 768 614 768 801 889 c 1,15,-1
 854 833 l 1,16,-1
 853 831 l 1,17,18
 669 700 669 700 553 547 c 1,19,20
 537 466 537 466 547.5 406.5 c 128,-1,21
 558 347 558 347 597 319 c 0,22,23
 621 302 621 302 653 302 c 0,24,25
 717 302 717 302 781 351 c 1,26,-1
 784 351 l 1,0,1
716 237 m 1,27,28
 678 215 678 215 628 216 c 0,29,30
 568 216 568 216 531 248 c 128,-1,31
 494 280 494 280 479 330 c 0,32,33
 469 364 469 364 470 404 c 1,34,-1
 466 404 l 1,35,36
 441 352 441 352 428 294 c 0,37,38
 409 210 409 210 423 152.5 c 128,-1,39
 437 95 437 95 485 73 c 0,40,41
 512 61 512 61 542 61 c 0,42,43
 591 61 591 61 629.5 89.5 c 128,-1,44
 668 118 668 118 692 164 c 0,45,46
 709 196 709 196 718 236 c 1,47,-1
 716 237 l 1,27,28
EndSplineSet
EndChar

StartChar: uni1C55
Encoding: 261 7253 5
Width: 1073
VWidth: 2048
Flags: W
LayerCount: 2
Fore
SplineSet
782 214 m 1,0,1
 755 201 755 201 719 201 c 0,2,3
 661 201 661 201 629 232.5 c 128,-1,4
 597 264 597 264 591 316 c 0,5,6
 587 352 587 352 597 398 c 0,7,8
 616 482 616 482 667.5 538 c 128,-1,9
 719 594 719 594 790 622 c 0,10,11
 841 642 841 642 904 647 c 1,12,-1
 918 567 l 1,13,-1
 915 565 l 1,14,15
 850 563 850 563 798 536.5 c 128,-1,16
 746 510 746 510 714 462 c 0,17,18
 694 432 694 432 686 396 c 0,19,20
 674 346 674 346 692.5 317.5 c 128,-1,21
 711 289 711 289 756 289 c 0,22,23
 817 289 817 289 869 328 c 1,24,-1
 872 328 l 1,25,26
 879 272 879 272 867 219 c 0,27,28
 848 136 848 136 797 77 c 128,-1,29
 746 18 746 18 678 -10 c 0,30,31
 631 -30 631 -30 579 -29 c 0,32,33
 450 -29 450 -29 396 87 c 0,34,35
 341 204 341 204 384 393 c 0,36,37
 429 588 429 588 553 776 c 0,38,39
 593 837 593 837 638 889 c 1,40,-1
 693 831 l 1,41,-1
 692 829 l 1,42,43
 573 679 573 679 509 507 c 0,44,45
 487 449 487 449 474 392 c 0,46,47
 449 282 449 282 461.5 201 c 128,-1,48
 474 120 474 120 527 83 c 0,49,50
 559 61 559 61 602 61 c 0,51,52
 651 61 651 61 691.5 86 c 128,-1,53
 732 111 732 111 758 152 c 0,54,55
 776 180 776 180 784 212 c 1,56,-1
 782 214 l 1,0,1
EndSplineSet
EndChar

StartChar: uni1C56
Encoding: 262 7254 6
Width: 1018
VWidth: 2048
Flags: W
LayerCount: 2
Fore
SplineSet
575 735 m 1,0,1
 572 763 572 763 574 794 c 1,2,-1
 646 834 l 1,3,-1
 649 834 l 1,4,5
 648 795 648 795 648 780 c 1,6,7
 723 817 723 817 785 816 c 0,8,9
 842 816 842 816 877.5 789 c 128,-1,10
 913 762 913 762 923 716 c 0,11,12
 930 684 930 684 921 645 c 0,13,14
 908 590 908 590 874 553 c 128,-1,15
 840 516 840 516 795 499 c 0,16,17
 765 488 765 488 735 488 c 0,18,19
 681 488 681 488 642.5 525.5 c 128,-1,20
 604 563 604 563 587 642 c 1,21,22
 486 551 486 551 458 429 c 0,23,24
 429 305 429 305 498 190 c 128,-1,25
 567 75 567 75 726 -28 c 1,26,-1
 725 -31 l 1,27,-1
 648 -91 l 1,28,29
 475 13 475 13 404 149 c 0,30,31
 334 281 334 281 368 429 c 0,32,33
 400 568 400 568 507 676 c 0,34,35
 540 709 540 709 575 735 c 1,0,1
749 569 m 0,36,37
 771 569 771 569 790 578.5 c 128,-1,38
 809 588 809 588 822.5 606 c 128,-1,39
 836 624 836 624 842 648 c 0,40,41
 851 687 851 687 831 709.5 c 128,-1,42
 811 732 811 732 772 732 c 0,43,44
 722 732 722 732 655 693 c 1,45,46
 665 626 665 626 690.5 597.5 c 128,-1,47
 716 569 716 569 749 569 c 0,36,37
EndSplineSet
EndChar

StartChar: uni1C57
Encoding: 263 7255 7
Width: 970
VWidth: 2048
Flags: W
LayerCount: 2
Fore
SplineSet
624 627 m 0,0,1
 614 582 614 582 641 549 c 1,2,-1
 640 546 l 1,3,-1
 574 492 l 1,4,-1
 428 718 l 1,5,-1
 496 778 l 1,6,-1
 500 778 l 1,7,-1
 561 659 l 1,8,-1
 564 660 l 1,9,10
 587 719 587 719 629.5 754 c 128,-1,11
 672 789 672 789 731 789 c 0,12,13
 784 789 784 789 813.5 763 c 128,-1,14
 843 737 843 737 849 691 c 0,15,16
 853 659 853 659 844 619 c 0,17,18
 833 573 833 573 811 540.5 c 128,-1,19
 789 508 789 508 751 470 c 0,20,21
 673 392 673 392 560 303 c 0,22,23
 506 260 506 260 467 226 c 128,-1,24
 428 192 428 192 404.5 162.5 c 128,-1,25
 381 133 381 133 373 99 c 0,26,27
 362 51 362 51 381.5 19 c 128,-1,28
 401 -13 401 -13 439 -27 c 0,29,30
 465 -37 465 -37 499 -37 c 0,31,32
 560 -37 560 -37 618.5 1.5 c 128,-1,33
 677 40 677 40 737 129 c 1,34,-1
 740 129 l 1,35,-1
 792 73 l 1,36,37
 720 -27 720 -27 643 -74.5 c 128,-1,38
 566 -122 566 -122 483 -122 c 0,39,40
 403 -122 403 -122 352 -85 c 128,-1,41
 301 -48 301 -48 286 15 c 0,42,43
 276 57 276 57 287 107 c 0,44,45
 298 154 298 154 320.5 187 c 128,-1,46
 343 220 343 220 379 253 c 0,47,48
 420 291 420 291 524.5 376 c 128,-1,49
 629 461 629 461 678 508 c 0,50,51
 707 536 707 536 725 556 c 0,52,53
 754 590 754 590 761 623 c 0,54,55
 770 662 770 662 757.5 685.5 c 128,-1,56
 745 709 745 709 713 709 c 0,57,58
 681 709 681 709 656.5 686.5 c 128,-1,59
 632 664 632 664 624 627 c 0,0,1
EndSplineSet
EndChar

StartChar: uni1C58
Encoding: 264 7256 8
Width: 1238
VWidth: 2048
Flags: W
LayerCount: 2
Fore
SplineSet
977 136 m 1,0,1
 814 -94 814 -94 594 -94 c 0,2,3
 502 -94 502 -94 443.5 -55.5 c 128,-1,4
 385 -17 385 -17 368 50 c 0,5,6
 357 95 357 95 370 149 c 2,7,-1
 483 640 l 2,8,9
 497 698 497 698 532 739.5 c 128,-1,10
 567 781 567 781 614 799 c 0,11,12
 644 811 644 811 675 811 c 0,13,14
 702 811 702 811 723.5 802.5 c 128,-1,15
 745 794 745 794 760.5 776.5 c 128,-1,16
 776 759 776 759 784.5 745.5 c 128,-1,17
 793 732 793 732 805 709 c 1,18,19
 864 766 864 766 906 789 c 0,20,21
 946 811 946 811 987 811 c 0,22,23
 1040 811 1040 811 1071 783 c 128,-1,24
 1102 755 1102 755 1109 709 c 0,25,26
 1114 677 1114 677 1105 638 c 0,27,28
 1096 600 1096 600 1077.5 569.5 c 128,-1,29
 1059 539 1059 539 1035 519 c 128,-1,30
 1011 499 1011 499 981 487 c 0,31,32
 952 475 952 475 921 475 c 0,33,34
 892 475 892 475 869 483.5 c 128,-1,35
 846 492 846 492 829.5 510 c 128,-1,36
 813 528 813 528 803.5 542.5 c 128,-1,37
 794 557 794 557 782 581 c 1,38,39
 692 481 692 481 632.5 410.5 c 128,-1,40
 573 340 573 340 535.5 290.5 c 128,-1,41
 498 241 498 241 480.5 207 c 128,-1,42
 463 173 463 173 456 146 c 0,43,44
 443 88 443 88 468 52 c 128,-1,45
 493 16 493 16 542 1 c 0,46,47
 575 -9 575 -9 615 -9 c 0,48,49
 685 -9 685 -9 740 19.5 c 128,-1,50
 795 48 795 48 846 100 c 0,51,52
 883 138 883 138 922 192 c 1,53,-1
 925 192 l 1,54,-1
 977 136 l 1,0,1
658 727 m 0,55,56
 641 727 641 727 626 720.5 c 128,-1,57
 611 714 611 714 599 702.5 c 128,-1,58
 587 691 587 691 578 675 c 128,-1,59
 569 659 569 659 565 640 c 2,60,-1
 504 377 l 1,61,-1
 507 376 l 1,62,63
 591 484 591 484 750 652 c 1,64,65
 733 683 733 683 712 705 c 128,-1,66
 691 727 691 727 658 727 c 0,55,56
934 555 m 0,67,68
 967 555 967 555 992 579 c 128,-1,69
 1017 603 1017 603 1026 641 c 0,70,71
 1039 699 1039 699 1000 720 c 0,72,73
 988 726 988 726 974 727 c 0,74,75
 945 727 945 727 911.5 703.5 c 128,-1,76
 878 680 878 680 837 640 c 1,77,78
 866 579 866 579 902 562 c 0,79,80
 916 555 916 555 934 555 c 0,67,68
EndSplineSet
EndChar

StartChar: uni1C59
Encoding: 265 7257 9
Width: 1195
VWidth: 2048
Flags: W
LayerCount: 2
Fore
SplineSet
805 77 m 1,0,1
 691 97 691 97 644 162 c 0,2,3
 605 218 605 218 622 293 c 0,4,5
 631 332 631 332 653 364.5 c 128,-1,6
 675 397 675 397 702 418.5 c 128,-1,7
 729 440 729 440 761 452 c 0,8,9
 796 466 796 466 835 467 c 0,10,11
 903 467 903 467 937.5 428.5 c 128,-1,12
 972 390 972 390 978 326 c 0,13,14
 982 282 982 282 969 230 c 0,15,16
 945 126 945 126 883.5 50.5 c 128,-1,17
 822 -25 822 -25 741 -63 c 0,18,19
 684 -89 684 -89 620 -89 c 0,20,21
 489 -89 489 -89 416 14 c 0,22,23
 339 123 339 123 380 298 c 0,24,25
 414 446 414 446 522 579 c 0,26,27
 636 720 636 720 816 829 c 1,28,-1
 871 774 l 1,29,-1
 871 772 l 1,30,31
 700 659 700 659 603 545 c 0,32,33
 498 422 498 422 466 289 c 0,34,35
 434 150 434 150 493 71 c 0,36,37
 544 1 544 1 642 1 c 0,38,39
 736 1 736 1 805 74 c 1,40,-1
 805 77 l 1,0,1
859 146 m 1,41,42
 880 186 880 186 891 230 c 0,43,44
 902 278 902 278 894.5 314.5 c 128,-1,45
 887 351 887 351 863 368 c 0,46,47
 846 380 846 380 821 380 c 0,48,49
 790 380 790 380 763.5 363 c 128,-1,50
 737 346 737 346 720 318 c 0,51,52
 709 301 709 301 705 284 c 0,53,54
 694 238 694 238 725 201 c 0,55,56
 763 155 763 155 859 146 c 1,41,42
EndSplineSet
EndChar

StartChar: uni1C5A
Encoding: 266 7258 10
Width: 1283
VWidth: 2048
Flags: W
AnchorPoint: "base" 738 -172 basechar 0
AnchorPoint: "top" 738 -172 entry 0
AnchorPoint: "top" 662 934 basechar 0
LayerCount: 2
Fore
SplineSet
488 679 m 1,0,1
 630 826 630 826 790 826 c 0,2,3
 894 826 894 826 966 760 c 0,4,5
 1073 662 1073 662 1069 469 c 0,6,7
 1068 406 1068 406 1052 338 c 0,8,9
 1008 149 1008 149 889 28 c 0,10,11
 771 -91 771 -91 633 -91 c 0,12,13
 484 -91 484 -91 428 55 c 0,14,15
 409 104 409 104 405 171 c 1,16,-1
 949 615 l 1,17,18
 897 737 897 737 779 737 c 0,19,20
 726 737 726 737 677.5 716.5 c 128,-1,21
 629 696 629 696 592 663 c 1,22,-1
 591 659 l 1,23,-1
 667 464 l 1,24,-1
 645 439 l 1,25,-1
 420 439 l 1,26,-1
 440 526 l 1,27,-1
 550 526 l 1,28,-1
 550 529 l 1,29,-1
 487 675 l 1,30,-1
 488 679 l 1,0,1
963 339 m 0,31,32
 987 445 987 445 973 533 c 1,33,-1
 503 148 l 1,34,35
 516 73 516 73 553.5 35.5 c 128,-1,36
 591 -2 591 -2 650 -2 c 0,37,38
 749 -2 749 -2 836 91 c 0,39,40
 928 188 928 188 963 339 c 0,31,32
EndSplineSet
EndChar

StartChar: uni1C5B
Encoding: 267 7259 11
Width: 1338
VWidth: 2048
Flags: W
AnchorPoint: "top" 722 916 basechar 0
AnchorPoint: "base" 714 -176 basechar 0
LayerCount: 2
Fore
SplineSet
407 370 m 256,0,1
 453 567 453 567 581 696 c 0,2,3
 709 825 709 825 860 826 c 0,4,5
 1012 826 1012 826 1080 696 c 0,6,7
 1148 566 1148 566 1102.5 369 c 128,-1,8
 1057 172 1057 172 928.5 40.5 c 128,-1,9
 800 -91 800 -91 648 -91 c 0,10,11
 497 -91 497 -91 429 41 c 128,-1,12
 361 173 361 173 407 370 c 256,0,1
498 370 m 0,13,14
 480 291 480 291 483 223 c 128,-1,15
 486 155 486 155 509.5 105.5 c 128,-1,16
 533 56 533 56 574 27 c 0,17,18
 614 -1 614 -1 669 -2 c 256,19,20
 779 -2 779 -2 877 105 c 128,-1,21
 975 212 975 212 1011 369.5 c 128,-1,22
 1047 527 1047 527 998 632 c 128,-1,23
 949 737 949 737 839 737 c 0,24,25
 730 737 730 737 632 632 c 0,26,27
 534 527 534 527 498 370 c 0,13,14
EndSplineSet
EndChar

StartChar: uni1C5C
Encoding: 268 7260 12
Width: 1278
VWidth: 2048
Flags: W
AnchorPoint: "top" 718 934 basechar 0
AnchorPoint: "base" 726 -150 basechar 0
LayerCount: 2
Fore
SplineSet
991 626 m 1,0,1
 945 737 945 737 830 737 c 0,2,3
 719 737 719 737 621 632 c 0,4,5
 523 527 523 527 487 370 c 0,6,7
 450 209 450 209 504 103 c 0,8,9
 557 -1 557 -1 674 -2 c 0,10,11
 740 -2 740 -2 794 30 c 128,-1,12
 848 62 848 62 887 116 c 0,13,14
 914 154 914 154 933 202 c 1,15,-1
 931 203 l 1,16,17
 862 179 862 179 801 179 c 0,18,19
 731 179 731 179 686 208 c 128,-1,20
 641 237 641 237 629 289 c 0,21,22
 621 324 621 324 631 367 c 0,23,24
 642 414 642 414 668 450 c 128,-1,25
 694 486 694 486 727 507.5 c 128,-1,26
 760 529 760 529 800 542 c 0,27,28
 846 557 846 557 903 557 c 0,29,30
 1015 557 1015 557 1076 519 c 1,31,-1
 1076 516 l 1,32,-1
 1030 444 l 1,33,34
 963 467 963 467 885 467 c 0,35,36
 783 467 783 467 733 405 c 0,37,38
 718 386 718 386 713 364 c 256,39,40
 705 331 705 331 721 309.5 c 128,-1,41
 737 288 737 288 763.5 279.5 c 128,-1,42
 790 271 790 271 826 271 c 0,43,44
 907 271 907 271 998 310 c 0,45,46
 1022 320 1022 320 1036 329 c 1,47,-1
 1039 329 l 1,48,49
 1038 287 1038 287 1028 244 c 0,50,51
 1002 131 1002 131 936 51.5 c 128,-1,52
 870 -28 870 -28 780 -65 c 0,53,54
 719 -90 719 -90 652 -91 c 0,55,56
 496 -91 496 -91 424 38 c 0,57,58
 350 168 350 168 397 370 c 0,59,60
 420 469 420 469 465 553 c 128,-1,61
 510 637 510 637 569 696 c 0,62,63
 698 826 698 826 849 826 c 0,64,65
 937 826 937 826 994.5 784.5 c 128,-1,66
 1052 743 1052 743 1082 674 c 1,67,-1
 1081 671 l 1,68,-1
 991 626 l 1,0,1
EndSplineSet
EndChar

StartChar: uni1C5D
Encoding: 269 7261 13
Width: 1279
VWidth: 2048
Flags: W
AnchorPoint: "top" 672 942 basechar 0
AnchorPoint: "base" 700 -154 basechar 0
LayerCount: 2
Fore
SplineSet
655 368 m 1,0,-1
 945 611 l 1,1,2
 926 693 926 693 838 720 c 0,3,4
 812 728 812 728 787 728 c 0,5,6
 712 728 712 728 639 662 c 0,7,8
 560 591 560 591 497 450 c 1,9,-1
 494 450 l 1,10,-1
 428 488 l 1,11,12
 490 637 490 637 596 729 c 0,13,14
 699 819 699 819 806 819 c 0,15,16
 892 819 892 819 956 763 c 0,17,18
 1025 703 1025 703 1048 598 c 1,19,-1
 1047 595 l 1,20,-1
 771 368 l 1,21,-1
 770 364 l 1,22,-1
 941 137 l 1,23,-1
 941 134 l 1,24,25
 860 20 860 20 770 -36 c 0,26,27
 688 -87 688 -87 604 -87 c 0,28,29
 492 -87 492 -87 430 1 c 0,30,31
 367 90 367 90 372 244 c 1,32,-1
 456 283 l 1,33,-1
 459 283 l 1,34,35
 457 142 457 142 502 70 c 0,36,37
 544 4 544 4 620 4 c 0,38,39
 706 4 706 4 786 71 c 0,40,41
 812 93 812 93 831 121 c 1,42,-1
 654 364 l 1,43,-1
 655 368 l 1,0,-1
912 407 m 1,44,-1
 1071 407 l 1,45,-1
 1052 325 l 1,46,-1
 893 325 l 1,47,-1
 912 407 l 1,44,-1
EndSplineSet
EndChar

StartChar: uni1C5E
Encoding: 270 7262 14
Width: 1132
VWidth: 2048
Flags: W
AnchorPoint: "top" 652 950 basechar 0
AnchorPoint: "base" 570 -138 basechar 0
LayerCount: 2
Fore
SplineSet
444 186 m 1,0,-1
 387 -61 l 1,1,-1
 297 -61 l 1,2,-1
 499 812 l 1,3,-1
 588 812 l 1,4,-1
 563 701 l 1,5,-1
 566 701 l 1,6,-1
 807 834 l 1,7,-1
 811 834 l 1,8,9
 886 793 886 793 928.5 724 c 128,-1,10
 971 655 971 655 975 561 c 0,11,12
 978 502 978 502 964 438 c 0,13,14
 920 246 920 246 750 115 c 0,15,16
 695 72 695 72 627 39 c 1,17,-1
 624 39 l 1,18,-1
 447 186 l 1,19,-1
 444 186 l 1,0,-1
539 598 m 1,20,-1
 469 293 l 1,21,-1
 643 146 l 1,22,-1
 646 146 l 1,23,24
 780 218 780 218 844 353 c 0,25,26
 864 394 864 394 873 437 c 0,27,28
 904 573 904 573 838 670 c 0,29,30
 815 703 815 703 780 728 c 1,31,-1
 777 728 l 1,32,-1
 539 598 l 1,20,-1
EndSplineSet
EndChar

StartChar: uni1C5F
Encoding: 271 7263 15
Width: 1502
VWidth: 2048
Flags: W
AnchorPoint: "top" 758 1015 basechar 0
AnchorPoint: "base" 774 -213 basechar 0
LayerCount: 2
Fore
SplineSet
1135 336 m 0,0,1
 1188 564 1188 564 1121 681 c 1,2,-1
 1117 681 l 1,3,-1
 1029 592 l 1,4,5
 1046 480 1046 480 1013 338 c 0,6,7
 969 148 969 148 863 28 c 0,8,9
 758 -91 758 -91 636 -91 c 0,10,11
 513 -91 513 -91 464 25 c 0,12,13
 448 63 448 63 444 111 c 1,14,-1
 928 601 l 1,15,16
 915 672 915 672 881 703.5 c 128,-1,17
 847 735 847 735 800 735 c 0,18,19
 723 735 723 735 634 663 c 1,20,-1
 634 659 l 1,21,-1
 710 464 l 1,22,-1
 688 439 l 1,23,-1
 462 439 l 1,24,-1
 482 525 l 1,25,-1
 592 525 l 1,26,-1
 593 528 l 1,27,-1
 529 675 l 1,28,-1
 530 678 l 1,29,30
 627 786 627 786 741 816 c 0,31,32
 776 825 776 825 809 825 c 0,33,34
 949 825 949 825 1005 679 c 1,35,-1
 1139 814 l 1,36,37
 1299 661 1299 661 1223 333 c 0,38,39
 1179 142 1179 142 1085 -7 c 0,40,41
 1054 -55 1054 -55 1020 -92 c 1,42,-1
 956 -38 l 1,43,44
 1043 55 1043 55 1103 223 c 0,45,46
 1122 278 1122 278 1135 336 c 0,0,1
545 100 m 1,47,48
 570 -2 570 -2 656 -2 c 0,49,50
 738 -2 738 -2 812 91 c 0,51,52
 887 186 887 186 922 337 c 0,53,54
 942 424 942 424 943 502 c 1,55,-1
 940 502 l 1,56,-1
 545 100 l 1,47,48
EndSplineSet
EndChar

StartChar: uni1C60
Encoding: 272 7264 16
Width: 1129
VWidth: 2048
Flags: W
AnchorPoint: "top" 582 955 basechar 0
AnchorPoint: "base" 614 -189 basechar 0
LayerCount: 2
Fore
SplineSet
523 549 m 1,0,-1
 526 549 l 1,1,-1
 771 696 l 1,2,-1
 775 696 l 1,3,4
 932 599 932 599 939 416 c 0,5,6
 941 358 941 358 927 297 c 0,7,8
 898 170 898 170 809 64 c 0,9,10
 718 -45 718 -45 591 -99 c 1,11,-1
 588 -99 l 1,12,-1
 328 91 l 1,13,-1
 491 796 l 1,14,-1
 580 796 l 1,15,-1
 523 549 l 1,0,-1
498 440 m 1,16,-1
 428 138 l 1,17,-1
 606 8 l 1,18,-1
 610 8 l 1,19,20
 746 82 746 82 809 216 c 0,21,22
 828 257 828 257 838 298 c 0,23,24
 869 432 869 432 801 531 c 0,25,26
 778 564 778 564 744 588 c 1,27,-1
 740 588 l 1,28,-1
 498 440 l 1,16,-1
EndSplineSet
EndChar

StartChar: uni1C61
Encoding: 273 7265 17
Width: 1204
VWidth: 2048
Flags: W
AnchorPoint: "top" 598 967 basechar 0
AnchorPoint: "base" 614 -181 basechar 0
LayerCount: 2
Fore
SplineSet
992 343 m 0,0,1
 973 260 973 260 940 192.5 c 128,-1,2
 907 125 907 125 862.5 74 c 128,-1,3
 818 23 818 23 767.5 -15 c 128,-1,4
 717 -53 717 -53 655 -83 c 1,5,-1
 652 -83 l 1,6,-1
 445 122 l 1,7,-1
 441 122 l 1,8,-1
 398 -67 l 1,9,-1
 309 -67 l 1,10,-1
 510 806 l 1,11,-1
 599 806 l 1,12,-1
 468 238 l 1,13,-1
 682 29 l 1,14,-1
 685 29 l 1,15,16
 849 120 849 120 901 341 c 0,17,18
 938 503 938 503 906 668 c 0,19,20
 896 722 896 722 877 770 c 1,21,-1
 878 773 l 1,22,-1
 959 830 l 1,23,24
 1026 681 1026 681 1012 476 c 0,25,26
 1007 409 1007 409 992 343 c 0,0,1
EndSplineSet
EndChar

StartChar: uni1C62
Encoding: 274 7266 18
Width: 1204
VWidth: 2048
Flags: W
AnchorPoint: "top" 670 907 basechar 0
AnchorPoint: "base" 722 -165 basechar 0
LayerCount: 2
Fore
SplineSet
461 341 m 0,0,1
 410 120 410 120 533 29 c 1,2,-1
 535 29 l 1,3,-1
 846 238 l 1,4,-1
 978 806 l 1,5,-1
 1067 806 l 1,6,-1
 865 -67 l 1,7,-1
 776 -67 l 1,8,-1
 820 122 l 1,9,-1
 816 122 l 1,10,-1
 514 -83 l 1,11,-1
 511 -83 l 1,12,13
 463 -52 463 -52 430 -14.5 c 128,-1,14
 397 23 397 23 376 74 c 128,-1,15
 355 125 355 125 353.5 193 c 128,-1,16
 352 261 352 261 371 343 c 0,17,18
 417 540 417 540 545 726 c 0,19,20
 585 783 585 783 629 830 c 1,21,-1
 684 773 l 1,22,-1
 683 770 l 1,23,24
 560 624 560 624 494 448 c 0,25,26
 473 393 473 393 461 341 c 0,0,1
EndSplineSet
EndChar

StartChar: uni1C63
Encoding: 275 7267 19
Width: 1285
VWidth: 2048
Flags: W
AnchorPoint: "top" 690 899 basechar 0
AnchorPoint: "base" 730 -161 basechar 0
LayerCount: 2
Fore
SplineSet
388 239 m 0,0,1
 403 305 403 305 438 374 c 1,2,-1
 442 374 l 1,3,4
 473 317 473 317 526 295 c 0,5,6
 544 288 544 288 562 288 c 0,7,8
 639 288 639 288 691 397 c 0,9,10
 709 436 709 436 722 493 c 0,11,12
 759 655 759 655 701 706 c 0,13,14
 684 721 684 721 662 721 c 0,15,16
 625 721 625 721 582.5 681 c 128,-1,17
 540 641 540 641 507 575 c 1,18,-1
 441 617 l 1,19,20
 494 717 494 717 562 768 c 0,21,22
 619 811 619 811 677 811 c 0,23,24
 764 811 764 811 803 722 c 0,25,26
 843 630 843 630 809 483 c 0,27,28
 777 342 777 342 703 266 c 0,29,30
 637 197 637 197 561 196 c 0,31,32
 510 196 510 196 469 229 c 1,33,-1
 466 227 l 1,34,35
 448 151 448 151 472.5 97.5 c 128,-1,36
 497 44 497 44 548 18 c 0,37,38
 584 0 584 0 631 0 c 0,39,40
 736 0 736 0 823 88 c 0,41,42
 915 181 915 181 952 340 c 0,43,44
 988 495 988 495 968 667 c 0,45,46
 962 721 962 721 950 768 c 1,47,-1
 950 770 l 1,48,-1
 1032 828 l 1,49,50
 1085 676 1085 676 1062 459 c 0,51,52
 1055 395 1055 395 1042 340 c 0,53,54
 1008 195 1008 195 934.5 91 c 128,-1,55
 861 -13 861 -13 758 -60 c 0,56,57
 691 -90 691 -90 620 -90 c 0,58,59
 490 -90 490 -90 423 2 c 0,60,61
 355 96 355 96 388 239 c 0,0,1
EndSplineSet
EndChar

StartChar: uni1C64
Encoding: 276 7268 20
Width: 1135
VWidth: 2048
Flags: W
AnchorPoint: "top" 630 919 basechar 0
AnchorPoint: "base" 630 -153 basechar 0
LayerCount: 2
Fore
SplineSet
413 674 m 1,0,1
 479 744 479 744 564.5 786 c 128,-1,2
 650 828 650 828 746 828 c 0,3,4
 928 828 928 828 1003 656 c 1,5,-1
 922 570 l 1,6,-1
 775 -67 l 1,7,-1
 687 -67 l 1,8,-1
 805 445 l 1,9,-1
 802 445 l 1,10,-1
 314 -81 l 1,11,-1
 257 -22 l 1,12,-1
 893 664 l 1,13,14
 832 742 832 742 725 742 c 0,15,16
 655 742 655 742 592 710 c 128,-1,17
 529 678 529 678 468 618 c 1,18,-1
 465 618 l 1,19,-1
 413 674 l 1,0,1
EndSplineSet
EndChar

StartChar: uni1C65
Encoding: 277 7269 21
Width: 1135
VWidth: 2048
Flags: W
AnchorPoint: "top" 642 935 basechar 0
AnchorPoint: "base" 574 -189 basechar 0
LayerCount: 2
Fore
SplineSet
892 61 m 1,0,1
 860 27 860 27 824 0 c 128,-1,2
 788 -27 788 -27 746 -48.5 c 128,-1,3
 704 -70 704 -70 656.5 -81.5 c 128,-1,4
 609 -93 609 -93 559 -93 c 0,5,6
 377 -93 377 -93 303 79 c 1,7,-1
 384 165 l 1,8,-1
 531 802 l 1,9,-1
 619 802 l 1,10,-1
 501 290 l 1,11,-1
 504 290 l 1,12,-1
 991 816 l 1,13,-1
 1048 757 l 1,14,-1
 412 71 l 1,15,16
 473 -7 473 -7 581 -7 c 0,17,18
 651 -7 651 -7 714 25 c 128,-1,19
 777 57 777 57 837 117 c 1,20,-1
 840 117 l 1,21,-1
 892 61 l 1,0,1
EndSplineSet
EndChar

StartChar: uni1C66
Encoding: 278 7270 22
Width: 1421
VWidth: 2048
Flags: W
AnchorPoint: "top" 782 983 basechar 0
AnchorPoint: "base" 790 -105 basechar 0
LayerCount: 2
Fore
SplineSet
517 359 m 0,0,1
 493 254 493 254 504 173 c 128,-1,2
 515 92 515 92 562 48 c 1,3,-1
 565 48 l 1,4,-1
 774 278 l 1,5,-1
 777 278 l 1,6,-1
 880 48 l 1,7,-1
 882 48 l 1,8,9
 926 78 926 78 963 124 c 128,-1,10
 1000 170 1000 170 1027 229.5 c 128,-1,11
 1054 289 1054 289 1070 359 c 0,12,13
 1109 526 1109 526 1060 678 c 0,14,15
 1045 726 1045 726 1021 770 c 1,16,-1
 1022 773 l 1,17,-1
 1103 830 l 1,18,19
 1189 687 1189 687 1180 494 c 0,20,21
 1177 430 1177 430 1161 362 c 0,22,23
 1125 206 1125 206 1042 95 c 128,-1,24
 959 -16 959 -16 842 -83 c 1,25,-1
 839 -83 l 1,26,-1
 742 128 l 1,27,-1
 739 128 l 1,28,-1
 545 -83 l 1,29,-1
 541 -83 l 1,30,31
 455 -16 455 -16 423 95 c 128,-1,32
 391 206 391 206 428 362 c 0,33,34
 474 560 474 560 610 730 c 0,35,36
 653 784 653 784 702 830 c 1,37,-1
 757 773 l 1,38,-1
 756 770 l 1,39,40
 619 631 619 631 553 472 c 0,41,42
 530 417 530 417 517 359 c 0,0,1
EndSplineSet
EndChar

StartChar: uni1C67
Encoding: 279 7271 23
Width: 1129
VWidth: 2048
Flags: W
AnchorPoint: "top" 602 959 basechar 0
AnchorPoint: "base" 690 -133 basechar 0
LayerCount: 2
Fore
SplineSet
776 186 m 1,0,-1
 773 186 l 1,1,-1
 528 39 l 1,2,-1
 524 39 l 1,3,4
 421 102 421 102 382 210 c 0,5,6
 344 313 344 313 372 438 c 0,7,8
 417 634 417 634 588 764 c 0,9,10
 643 806 643 806 708 834 c 1,11,-1
 711 834 l 1,12,-1
 971 644 l 1,13,-1
 808 -61 l 1,14,-1
 719 -61 l 1,15,-1
 776 186 l 1,0,-1
559 147 m 1,16,-1
 801 294 l 1,17,-1
 871 597 l 1,18,-1
 693 727 l 1,19,-1
 689 727 l 1,20,21
 554 654 554 654 490 518 c 0,22,23
 471 477 471 477 461 437 c 0,24,25
 430 303 430 303 498 204 c 0,26,27
 521 171 521 171 555 147 c 1,28,-1
 559 147 l 1,16,-1
EndSplineSet
EndChar

StartChar: uni1C68
Encoding: 280 7272 24
Width: 1029
VWidth: 2048
Flags: W
AnchorPoint: "top" 490 943 basechar 0
AnchorPoint: "base" 526 -205 basechar 0
LayerCount: 2
Fore
SplineSet
701 212 m 1,0,1
 733 270 733 270 746 330 c 0,2,3
 777 462 777 462 709 567 c 0,4,5
 635 682 635 682 449 749 c 1,6,-1
 450 751 l 1,7,-1
 508 830 l 1,8,9
 699 774 699 774 788 636 c 0,10,11
 875 500 875 500 837 332 c 0,12,13
 810 216 810 216 732 106 c 0,14,15
 644 -17 644 -17 525 -83 c 1,16,-1
 521 -83 l 1,17,-1
 421 87 l 1,18,-1
 417 87 l 1,19,-1
 282 -83 l 1,20,-1
 279 -83 l 1,21,-1
 221 -32 l 1,22,-1
 437 239 l 1,23,-1
 440 239 l 1,24,-1
 557 49 l 1,25,-1
 560 49 l 1,26,27
 593 68 593 68 639 121 c 1,28,-1
 385 553 l 1,29,-1
 459 613 l 1,30,-1
 462 613 l 1,31,-1
 697 211 l 1,32,-1
 701 212 l 1,0,1
EndSplineSet
EndChar

StartChar: uni1C69
Encoding: 281 7273 25
Width: 1124
VWidth: 2048
Flags: W
AnchorPoint: "top" 546 939 basechar 0
AnchorPoint: "base" 622 -189 basechar 0
LayerCount: 2
Fore
SplineSet
515 537 m 1,0,-1
 763 696 l 1,1,-1
 766 696 l 1,2,3
 923 599 923 599 930 417 c 0,4,5
 932 359 932 359 919 298 c 0,6,7
 873 100 873 100 699 -30 c 0,8,9
 643 -72 643 -72 577 -99 c 1,10,-1
 574 -99 l 1,11,-1
 308 88 l 1,12,-1
 368 164 l 1,13,-1
 592 8 l 1,14,-1
 596 8 l 1,15,16
 737 83 737 83 799 215 c 0,17,18
 819 257 819 257 829 300 c 0,19,20
 860 433 860 433 798 531 c 0,21,22
 777 564 777 564 746 588 c 1,23,-1
 742 588 l 1,24,-1
 466 413 l 1,25,-1
 394 413 l 1,26,-1
 482 796 l 1,27,-1
 572 796 l 1,28,-1
 512 537 l 1,29,-1
 515 537 l 1,0,-1
EndSplineSet
EndChar

StartChar: uni1C6A
Encoding: 282 7274 26
Width: 1287
VWidth: 2048
Flags: W
AnchorPoint: "top" 698 963 basechar 0
AnchorPoint: "base" 714 -177 basechar 0
LayerCount: 2
Fore
SplineSet
922 313 m 1,0,-1
 1030 127 l 1,1,2
 910 -29 910 -29 737 -75 c 0,3,4
 680 -90 680 -90 623 -91 c 0,5,6
 449 -91 449 -91 360 37 c 0,7,8
 332 77 332 77 317 127 c 1,9,-1
 510 314 l 1,10,-1
 579 610 l 2,11,12
 596 682 596 682 642 733 c 128,-1,13
 688 784 688 784 749 808 c 0,14,15
 791 825 791 825 834 826 c 256,16,17
 921 826 921 826 967 762 c 0,18,19
 1012 700 1012 700 990 610 c 2,20,-1
 922 313 l 1,0,-1
905 610 m 2,21,22
 915 652 915 652 901 683.5 c 128,-1,23
 887 715 887 715 859 730 c 0,24,25
 840 741 840 741 815 741 c 256,26,27
 788 741 788 741 762.5 729 c 128,-1,28
 737 717 737 717 717.5 699.5 c 128,-1,29
 698 682 698 682 684 659 c 0,30,31
 669 635 669 635 663 610 c 2,32,-1
 596 320 l 2,33,34
 588 286 588 286 604 261.5 c 128,-1,35
 620 237 620 237 648 225 c 0,36,37
 668 216 668 216 693 217 c 256,38,39
 731 217 731 217 764.5 234.5 c 128,-1,40
 798 252 798 252 819 280 c 0,41,42
 833 298 833 298 838 317 c 2,43,-1
 905 610 l 2,21,22
424 125 m 1,44,45
 490 -1 490 -1 643 -1 c 0,46,47
 797 -1 797 -1 921 124 c 1,48,-1
 867 214 l 1,49,50
 832 175 832 175 781 151.5 c 128,-1,51
 730 128 730 128 673.5 128 c 128,-1,52
 617 128 617 128 577 151.5 c 128,-1,53
 537 175 537 175 520 214 c 1,54,-1
 424 125 l 1,44,45
EndSplineSet
EndChar

StartChar: uni1C6B
Encoding: 283 7275 27
Width: 1392
VWidth: 2048
Flags: W
AnchorPoint: "top" 778 915 basechar 0
AnchorPoint: "base" 762 -189 basechar 0
LayerCount: 2
Fore
SplineSet
680 353 m 1,0,-1
 623 272 l 1,1,2
 512 286 512 286 466 345 c 0,3,4
 425 397 425 397 442 473 c 0,5,6
 454 523 454 523 491 577 c 0,7,8
 569 687 569 687 722 767 c 0,9,10
 798 807 798 807 887 830 c 1,11,12
 1038 786 1038 786 1118 679 c 0,13,14
 1154 631 1154 631 1167.5 577.5 c 128,-1,15
 1181 524 1181 524 1169 473 c 0,16,17
 1141 351 1141 351 1003 296 c 0,18,19
 955 277 955 277 895 272 c 1,20,-1
 875 353 l 1,21,-1
 877 356 l 1,22,23
 968 364 968 364 1022 398 c 0,24,25
 1070 428 1070 428 1081 475 c 0,26,27
 1088 504 1088 504 1079 541 c 0,28,29
 1059 618 1059 618 972 685 c 0,30,31
 928 719 928 719 867 743 c 1,32,33
 733 699 733 699 634 615 c 0,34,35
 590 578 590 578 563.5 541.5 c 128,-1,36
 537 505 537 505 530 474 c 0,37,38
 519 426 519 426 555 394 c 0,39,40
 594 359 594 359 679 356 c 1,41,-1
 680 353 l 1,0,-1
767 121 m 1,42,43
 722 81 722 81 657 81 c 0,44,45
 602 81 602 81 557 110 c 1,46,-1
 554 108 l 1,47,48
 559 72 559 72 574.5 46.5 c 128,-1,49
 590 21 590 21 620 6 c 128,-1,50
 650 -9 650 -9 692 -9 c 0,51,52
 758 -9 758 -9 808.5 32.5 c 128,-1,53
 859 74 859 74 902 162 c 1,54,-1
 906 162 l 1,55,-1
 958 106 l 1,56,57
 882 -34 882 -34 763 -76 c 0,58,59
 724 -90 724 -90 681 -90 c 0,60,61
 579 -90 579 -90 526 -19 c 0,62,63
 463 63 463 63 498 213 c 1,64,-1
 510 220 l 1,65,66
 561 177 561 177 625 166 c 0,67,68
 641 163 641 163 652 164 c 0,69,70
 684 164 684 164 695 179 c 1,71,-1
 783 560 l 1,72,-1
 868 560 l 1,73,-1
 767 121 l 1,42,43
EndSplineSet
EndChar

StartChar: uni1C6C
Encoding: 284 7276 28
Width: 1421
VWidth: 2048
Flags: W
AnchorPoint: "top" 794 931 basechar 0
AnchorPoint: "base" 758 -161 basechar 0
LayerCount: 2
Fore
SplineSet
1074 376 m 0,0,1
 1090 446 1090 446 1090.5 505.5 c 128,-1,2
 1091 565 1091 565 1075.5 611 c 128,-1,3
 1060 657 1060 657 1030 687 c 1,4,-1
 1027 687 l 1,5,-1
 818 457 l 1,6,-1
 814 457 l 1,7,-1
 712 687 l 1,8,-1
 709 687 l 1,9,10
 643 643 643 643 594.5 562.5 c 128,-1,11
 546 482 546 482 521 376 c 0,12,13
 482 209 482 209 532 57 c 0,14,15
 547 9 547 9 570 -35 c 1,16,-1
 570 -38 l 1,17,-1
 488 -95 l 1,18,19
 402 48 402 48 411 241 c 0,20,21
 414 305 414 305 430 373 c 0,22,23
 480 589 480 589 632 732 c 0,24,25
 684 781 684 781 749 818 c 1,26,-1
 753 818 l 1,27,-1
 849 607 l 1,28,-1
 852 607 l 1,29,-1
 1047 818 l 1,30,-1
 1050 818 l 1,31,32
 1233 674 1233 674 1164 373 c 0,33,34
 1118 174 1118 174 982 4 c 0,35,36
 939 -50 939 -50 889 -95 c 1,37,-1
 835 -38 l 1,38,-1
 835 -35 l 1,39,40
 972 104 972 104 1038 262 c 0,41,42
 1060 316 1060 316 1074 376 c 0,0,1
EndSplineSet
EndChar

StartChar: uni1C6D
Encoding: 285 7277 29
Width: 1285
VWidth: 2048
Flags: W
AnchorPoint: "top" 702 951 basechar 0
AnchorPoint: "base" 674 -161 basechar 0
LayerCount: 2
Fore
SplineSet
1067 496 m 0,0,1
 1052 430 1052 430 1017 361 c 1,2,-1
 1014 361 l 1,3,4
 981 419 981 419 929 440 c 0,5,6
 911 447 911 447 893 447 c 0,7,8
 845 447 845 447 805 401 c 0,9,10
 758 348 758 348 733 242 c 0,11,12
 696 80 696 80 754 29 c 0,13,14
 771 14 771 14 794 14 c 0,15,16
 831 14 831 14 873 54 c 0,17,18
 913 92 913 92 948 160 c 1,19,-1
 1014 118 l 1,20,21
 961 18 961 18 894 -33 c 0,22,23
 837 -76 837 -76 778 -76 c 0,24,25
 691 -76 691 -76 653 13 c 0,26,27
 613 105 613 105 646 252 c 0,28,29
 678 394 678 394 752 470 c 0,30,31
 818 539 818 539 895 539 c 0,32,33
 946 539 946 539 986 506 c 1,34,-1
 990 508 l 1,35,36
 1008 584 1008 584 983.5 637.5 c 128,-1,37
 959 691 959 691 907 717 c 0,38,39
 871 735 871 735 824 735 c 0,40,41
 719 735 719 735 632 647 c 0,42,43
 540 554 540 554 503 395 c 0,44,45
 467 240 467 240 487 68 c 0,46,47
 493 14 493 14 505 -33 c 1,48,-1
 505 -35 l 1,49,-1
 423 -93 l 1,50,51
 370 59 370 59 393 276 c 0,52,53
 400 340 400 340 413 395 c 0,54,55
 447 540 447 540 521 644 c 128,-1,56
 595 748 595 748 698 795 c 0,57,58
 765 825 765 825 836 825 c 0,59,60
 966 825 966 825 1032 733 c 0,61,62
 1100 639 1100 639 1067 496 c 0,0,1
EndSplineSet
EndChar

StartChar: uni1C6E
Encoding: 286 7278 30
Width: 1108
VWidth: 2048
Flags: W
AnchorPoint: "top" 594 927 basechar 0
AnchorPoint: "base" 594 -169 basechar 0
LayerCount: 2
Fore
SplineSet
390 72 m 1,0,1
 457 -4 457 -4 562 -4 c 0,2,3
 612 -4 612 -4 659 13.5 c 128,-1,4
 706 31 706 31 741.5 56.5 c 128,-1,5
 777 82 777 82 813 119 c 1,6,-1
 817 119 l 1,7,-1
 869 64 l 1,8,9
 766 -48 766 -48 629 -80 c 0,10,11
 584 -90 584 -90 539 -91 c 0,12,13
 357 -91 357 -91 279 81 c 1,14,-1
 888 671 l 1,15,16
 821 739 821 739 720 739 c 0,17,18
 651 739 651 739 588.5 705 c 128,-1,19
 526 671 526 671 462 603 c 1,20,-1
 459 603 l 1,21,-1
 407 659 l 1,22,23
 553 825 553 825 742 826 c 0,24,25
 922 826 922 826 1002 666 c 1,26,-1
 390 72 l 1,0,1
EndSplineSet
EndChar

StartChar: uni1C6F
Encoding: 287 7279 31
Width: 1295
VWidth: 2048
Flags: W
AnchorPoint: "top" 706 923 basechar 0
AnchorPoint: "base" 686 -157 basechar 0
LayerCount: 2
Fore
SplineSet
562 649 m 1,0,1
 536 630 536 630 500 598 c 1,2,-1
 497 598 l 1,3,-1
 451 653 l 1,4,5
 563 775 563 775 735 814 c 0,6,7
 789 826 789 826 841 826 c 0,8,9
 1040 826 1040 826 1138 660 c 1,10,-1
 999 516 l 1,11,-1
 900 88 l 1,12,-1
 904 87 l 1,13,14
 934 108 934 108 965 137 c 1,15,-1
 968 137 l 1,16,-1
 1014 82 l 1,17,18
 960 23 960 23 887 -18.5 c 128,-1,19
 814 -60 814 -60 731 -79 c 0,20,21
 677 -91 677 -91 624 -91 c 0,22,23
 424 -91 424 -91 326 74 c 1,24,-1
 465 216 l 1,25,-1
 565 648 l 1,26,-1
 562 649 l 1,0,1
437 76 m 1,27,28
 521 -6 521 -6 643 -7 c 0,29,30
 721 -7 721 -7 805 29 c 1,31,-1
 926 553 l 1,32,-1
 1028 660 l 1,33,34
 944 742 944 742 822 742 c 0,35,36
 743 742 743 742 660 706 c 1,37,-1
 538 178 l 1,38,-1
 437 76 l 1,27,28
EndSplineSet
EndChar

StartChar: uni1C70
Encoding: 288 7280 32
Width: 1504
VWidth: 2048
Flags: W
AnchorPoint: "top" 790 987 basechar 0
AnchorPoint: "base" 834 -173 basechar 0
LayerCount: 2
Fore
SplineSet
952 804 m 2,0,1
 1011 804 1011 804 1059.5 788 c 128,-1,2
 1108 772 1108 772 1142 746 c 128,-1,3
 1176 720 1176 720 1199 683 c 0,4,5
 1277 562 1277 562 1233 372 c 0,6,7
 1185 163 1185 163 1031 7 c 0,8,9
 981 -44 981 -44 922 -81 c 1,10,-1
 892 -12 l 1,11,-1
 892 -9 l 1,12,13
 1042 101 1042 101 1111 265 c 0,14,15
 1132 315 1132 315 1144 366 c 0,16,17
 1170 478 1170 478 1147.5 559 c 128,-1,18
 1125 640 1125 640 1062 682 c 0,19,20
 1019 710 1019 710 959 717 c 1,21,-1
 778 -69 l 1,22,-1
 717 -69 l 2,23,24
 551 -69 551 -69 474 52 c 0,25,26
 397 172 397 172 441 363 c 0,27,28
 489 572 489 572 642 727 c 0,29,30
 693 779 693 779 753 817 c 1,31,-1
 783 747 l 1,32,-1
 782 745 l 1,33,34
 630 632 630 632 563 468 c 0,35,36
 542 418 542 418 530 369 c 0,37,38
 504 257 504 257 526 176.5 c 128,-1,39
 548 96 548 96 609 54 c 0,40,41
 651 25 651 25 710 19 c 1,42,-1
 891 804 l 1,43,-1
 952 804 l 2,0,1
EndSplineSet
EndChar

StartChar: uni1C71
Encoding: 289 7281 33
Width: 1225
VWidth: 2048
Flags: W
AnchorPoint: "top" 694 927 basechar 0
AnchorPoint: "base" 702 -169 basechar 0
LayerCount: 2
Fore
SplineSet
641 -4 m 0,0,1
 715 -4 715 -4 777 29 c 128,-1,2
 839 62 839 62 897 119 c 1,3,-1
 900 119 l 1,4,-1
 952 64 l 1,5,6
 848 -48 848 -48 710 -80 c 0,7,8
 665 -90 665 -90 620 -91 c 0,9,10
 438 -91 438 -91 363 81 c 1,11,-1
 443 164 l 1,12,-1
 555 650 l 1,13,-1
 553 651 l 1,14,15
 528 634 528 634 490 598 c 1,16,-1
 487 598 l 1,17,-1
 440 653 l 1,18,19
 549 775 549 775 717 814 c 0,20,21
 769 826 769 826 820 826 c 0,22,23
 1014 826 1014 826 1107 660 c 1,24,-1
 1041 601 l 1,25,-1
 1038 601 l 1,26,27
 1026 621 1026 621 1011 639 c 1,28,-1
 468 76 l 1,29,30
 533 -4 533 -4 641 -4 c 0,0,1
801 742 m 0,31,32
 731 742 731 742 650 709 c 1,33,-1
 550 274 l 1,34,-1
 552 272 l 1,35,-1
 956 695 l 1,36,37
 882 742 882 742 801 742 c 0,31,32
EndSplineSet
EndChar

StartChar: uni1C72
Encoding: 290 7282 34
Width: 1225
VWidth: 2048
Flags: W
AnchorPoint: "top" 626 919 basechar 0
AnchorPoint: "base" 646 -173 basechar 0
LayerCount: 2
Fore
SplineSet
754 739 m 0,0,1
 703 739 703 739 655 721.5 c 128,-1,2
 607 704 607 704 571.5 678.5 c 128,-1,3
 536 653 536 653 498 616 c 1,4,-1
 495 616 l 1,5,-1
 443 671 l 1,6,7
 547 783 547 783 686 815 c 0,8,9
 731 825 731 825 776 826 c 0,10,11
 958 826 958 826 1032 654 c 1,12,-1
 952 571 l 1,13,-1
 840 85 l 1,14,-1
 842 84 l 1,15,16
 867 101 867 101 905 137 c 1,17,-1
 908 137 l 1,18,-1
 955 82 l 1,19,20
 846 -40 846 -40 678 -79 c 0,21,22
 626 -91 626 -91 575 -91 c 0,23,24
 381 -91 381 -91 289 75 c 1,25,-1
 354 134 l 1,26,-1
 357 134 l 1,27,28
 369 114 369 114 384 96 c 1,29,-1
 927 659 l 1,30,31
 862 739 862 739 754 739 c 0,0,1
595 -7 m 0,32,33
 665 -7 665 -7 745 26 c 1,34,-1
 845 461 l 1,35,-1
 844 463 l 1,36,-1
 440 40 l 1,37,38
 514 -7 514 -7 595 -7 c 0,32,33
EndSplineSet
EndChar

StartChar: uni1C73
Encoding: 291 7283 35
Width: 1285
VWidth: 2048
Flags: W
AnchorPoint: "top" 710 931 basechar 0
AnchorPoint: "base" 690 -157 basechar 0
LayerCount: 2
Fore
SplineSet
892 183 m 1,0,1
 844 143 844 143 781 143 c 0,2,3
 713 143 713 143 672 179.5 c 128,-1,4
 631 216 631 216 621 274 c 0,5,6
 614 314 614 314 625 363 c 128,-1,7
 636 412 636 412 661.5 452.5 c 128,-1,8
 687 493 687 493 719.5 519.5 c 128,-1,9
 752 546 752 546 790 562 c 0,10,11
 829 578 829 578 871 578 c 0,12,13
 947 578 947 578 982 522 c 1,14,-1
 985 524 l 1,15,16
 973 676 973 676 873 722 c 0,17,18
 840 737 840 737 800 737 c 0,19,20
 720 737 720 737 642 678 c 0,21,22
 565 620 565 620 511 520 c 1,23,-1
 508 518 l 1,24,-1
 431 551 l 1,25,26
 480 643 480 643 551 709.5 c 128,-1,27
 622 776 622 776 708 806 c 0,28,29
 763 826 763 826 820 826 c 0,30,31
 971 826 971 826 1038 696 c 0,32,33
 1104 567 1104 567 1058 369 c 128,-1,34
 1012 171 1012 171 886 41 c 0,35,36
 760 -90 760 -90 609 -91 c 0,37,38
 498 -91 498 -91 428 -17 c 0,39,40
 359 56 359 56 348 179 c 1,41,-1
 439 220 l 1,42,-1
 441 218 l 1,43,44
 446 145 446 145 475 92 c 128,-1,45
 504 39 504 39 556 14 c 0,46,47
 589 -2 589 -2 630 -2 c 0,48,49
 740 -2 740 -2 837 104 c 0,50,51
 868 138 868 138 895 181 c 1,52,-1
 892 183 l 1,0,1
805 229 m 0,53,54
 834 229 834 229 861.5 240 c 128,-1,55
 889 251 889 251 909.5 268.5 c 128,-1,56
 930 286 930 286 945 309.5 c 128,-1,57
 960 333 960 333 966 358 c 0,58,59
 976 402 976 402 960.5 434.5 c 128,-1,60
 945 467 945 467 915 484 c 0,61,62
 894 495 894 495 867 495 c 0,63,64
 839 495 839 495 812.5 484 c 128,-1,65
 786 473 786 473 766.5 455 c 128,-1,66
 747 437 747 437 732 414 c 0,67,68
 716 389 716 389 709 358 c 0,69,70
 702 328 702 328 706.5 303.5 c 128,-1,71
 711 279 711 279 724 263 c 0,72,73
 737 246 737 246 757 238 c 0,74,75
 778 228 778 228 805 229 c 0,53,54
EndSplineSet
EndChar

StartChar: uni1C74
Encoding: 292 7284 36
Width: 1204
VWidth: 2048
Flags: W
AnchorPoint: "top" 642 927 basechar 0
AnchorPoint: "base" 610 -149 basechar 0
LayerCount: 2
Fore
SplineSet
913 394 m 0,0,1
 964 615 964 615 842 706 c 1,2,-1
 839 706 l 1,3,-1
 528 497 l 1,4,-1
 397 -71 l 1,5,-1
 307 -71 l 1,6,-1
 509 802 l 1,7,-1
 598 802 l 1,8,-1
 555 613 l 1,9,-1
 558 613 l 1,10,-1
 860 818 l 1,11,-1
 863 818 l 1,12,13
 911 787 911 787 944.5 749.5 c 128,-1,14
 978 712 978 712 999 661 c 128,-1,15
 1020 610 1020 610 1021 542 c 128,-1,16
 1022 474 1022 474 1003 392 c 0,17,18
 957 192 957 192 829 9 c 0,19,20
 789 -48 789 -48 746 -95 c 1,21,-1
 691 -38 l 1,22,-1
 691 -35 l 1,23,24
 814 111 814 111 880 287 c 0,25,26
 901 342 901 342 913 394 c 0,0,1
EndSplineSet
EndChar

StartChar: uni1C75
Encoding: 293 7285 37
Width: 1504
VWidth: 2048
Flags: W
AnchorPoint: "top" 838 935 basechar 0
AnchorPoint: "base" 802 -185 basechar 0
LayerCount: 2
Fore
SplineSet
985 804 m 1,0,-1
 803 19 l 1,1,2
 898 28 898 28 973 86.5 c 128,-1,3
 1048 145 1048 145 1096 236 c 0,4,5
 1128 297 1128 297 1145 369 c 0,6,7
 1182 530 1182 530 1123 659 c 0,8,9
 1102 704 1102 704 1066 745 c 1,10,-1
 1067 747 l 1,11,-1
 1129 817 l 1,12,13
 1189 762 1189 762 1219.5 679 c 128,-1,14
 1250 596 1250 596 1248 491 c 0,15,16
 1246 427 1246 427 1231 363 c 0,17,18
 1187 173 1187 173 1055 52 c 0,19,20
 921 -69 921 -69 756 -69 c 2,21,-1
 696 -69 l 1,22,-1
 877 717 l 1,23,24
 780 708 780 708 704 649.5 c 128,-1,25
 628 591 628 591 579 499 c 0,26,27
 546 437 546 437 530 366 c 0,28,29
 493 204 493 204 553 74 c 0,30,31
 574 29 574 29 608 -9 c 1,32,-1
 608 -12 l 1,33,-1
 545 -81 l 1,34,35
 505 -46 505 -46 478.5 3 c 128,-1,36
 452 52 452 52 438.5 112.5 c 128,-1,37
 425 173 425 173 427 242 c 0,38,39
 429 307 429 307 444 372 c 0,40,41
 488 562 488 562 621.5 683 c 128,-1,42
 755 804 755 804 924 804 c 2,43,-1
 985 804 l 1,0,-1
EndSplineSet
EndChar

StartChar: uni1C76
Encoding: 294 7286 38
Width: 1281
VWidth: 2048
Flags: W
AnchorPoint: "top" 638 919 basechar 0
AnchorPoint: "base" 690 -173 basechar 0
LayerCount: 2
Fore
SplineSet
972 677 m 256,0,1
 979 708 979 708 1002.5 728 c 128,-1,2
 1026 748 1026 748 1055 748 c 0,3,4
 1083 748 1083 748 1097.5 727.5 c 128,-1,5
 1112 707 1112 707 1105 677 c 0,6,7
 1094 631 1094 631 1048 611 c 0,8,9
 1035 605 1035 605 1021 606 c 0,10,11
 993 606 993 606 979 626.5 c 128,-1,12
 965 647 965 647 972 677 c 256,0,1
951 334 m 0,13,14
 959 370 959 370 975 469 c 1,15,-1
 977 471 l 1,16,-1
 1066 487 l 1,17,18
 1057 402 1057 402 1041 334 c 0,19,20
 1007 189 1007 189 933 85 c 0,21,22
 859 -20 859 -20 756 -66 c 0,23,24
 689 -96 689 -96 618 -96 c 0,25,26
 488 -96 488 -96 422 -4 c 0,27,28
 354 90 354 90 387 233 c 0,29,30
 402 299 402 299 437 369 c 1,31,-1
 440 369 l 1,32,33
 471 312 471 312 525 289 c 0,34,35
 543 282 543 282 561 282 c 0,36,37
 638 282 638 282 689 391 c 0,38,39
 707 430 707 430 721 487 c 0,40,41
 758 649 758 649 700 700 c 0,42,43
 683 715 683 715 660 715 c 0,44,45
 623 715 623 715 581 675 c 128,-1,46
 539 635 539 635 506 569 c 1,47,-1
 440 612 l 1,48,49
 493 712 493 712 560 762 c 0,50,51
 617 805 617 805 675 805 c 0,52,53
 762 805 762 805 801 716 c 0,54,55
 841 624 841 624 807 477 c 0,56,57
 775 336 775 336 702 260 c 0,58,59
 636 191 636 191 559 190 c 0,60,61
 508 190 508 190 468 223 c 1,62,-1
 464 222 l 1,63,64
 446 146 446 146 470.5 92 c 128,-1,65
 495 38 495 38 547 12 c 0,66,67
 583 -6 583 -6 630 -6 c 0,68,69
 735 -6 735 -6 822 82 c 0,70,71
 914 174 914 174 951 334 c 0,13,14
EndSplineSet
EndChar

StartChar: uni1C77
Encoding: 295 7287 39
Width: 1378
VWidth: 2048
Flags: W
AnchorPoint: "top" 742 971 basechar 0
AnchorPoint: "base" 754 -165 basechar 0
LayerCount: 2
Fore
SplineSet
1021 301 m 1,0,1
 984 294 984 294 944 294 c 0,2,3
 836 294 836 294 760.5 334.5 c 128,-1,4
 685 375 685 375 649 444 c 0,5,6
 612 516 612 516 631 603 c 0,7,8
 643 653 643 653 669 695 c 128,-1,9
 695 737 695 737 728.5 764.5 c 128,-1,10
 762 792 762 792 802 809 c 0,11,12
 846 827 846 827 896 827 c 0,13,14
 1037 827 1037 827 1102 688 c 0,15,16
 1132 624 1132 624 1138 536 c 128,-1,17
 1144 448 1144 448 1120 347 c 0,18,19
 1072 138 1072 138 931 -1 c 0,20,21
 883 -48 883 -48 823 -84 c 1,22,-1
 820 -84 l 1,23,-1
 701 80 l 1,24,-1
 698 80 l 1,25,-1
 525 -84 l 1,26,-1
 522 -84 l 1,27,28
 425 -28 425 -28 390.5 54.5 c 128,-1,29
 356 137 356 137 382 251 c 0,30,31
 402 340 402 340 468 461 c 1,32,-1
 537 421 l 1,33,-1
 537 418 l 1,34,35
 490 332 490 332 471 254 c 0,36,37
 453 175 453 175 468.5 117 c 128,-1,38
 484 59 484 59 529 36 c 1,39,-1
 532 36 l 1,40,-1
 723 215 l 1,41,-1
 727 215 l 1,42,-1
 852 36 l 1,43,-1
 856 36 l 1,44,45
 910 74 910 74 952 144 c 128,-1,46
 994 214 994 214 1021 301 c 1,0,1
967 384 m 0,47,48
 1005 384 1005 384 1041 390 c 1,49,50
 1064 539 1064 539 1017 639 c 0,51,52
 970 738 970 738 881 738 c 0,53,54
 851 738 851 738 823.5 726.5 c 128,-1,55
 796 715 796 715 775.5 696.5 c 128,-1,56
 755 678 755 678 740 652 c 0,57,58
 724 625 724 625 716 593 c 0,59,60
 695 501 695 501 766.5 442.5 c 128,-1,61
 838 384 838 384 967 384 c 0,47,48
EndSplineSet
EndChar

StartChar: uni1C78
Encoding: 296 7288 40
Width: 2
VWidth: 2048
GlyphClass: 4
Flags: W
AnchorPoint: "top" -253 945 mark 0
LayerCount: 2
Fore
SplineSet
160 941 m 256,0,1
 167 972 167 972 191 992 c 128,-1,2
 215 1012 215 1012 243 1012 c 0,3,4
 271 1012 271 1012 285.5 991.5 c 128,-1,5
 300 971 300 971 293 941 c 0,6,7
 282 895 282 895 237 875 c 0,8,9
 224 869 224 869 210 870 c 0,10,11
 191 870 191 870 178 879 c 128,-1,12
 165 888 165 888 160 904.5 c 128,-1,13
 155 921 155 921 160 941 c 256,0,1
EndSplineSet
EndChar

StartChar: uni1C79
Encoding: 297 7289 41
Width: 2
VWidth: 2048
GlyphClass: 4
Flags: W
AnchorPoint: "base" -278 -205 mark 0
LayerCount: 2
Fore
SplineSet
-119 -217 m 256,0,1
 -114 -197 -114 -197 -101.5 -180 c 128,-1,2
 -89 -163 -89 -163 -71.5 -154 c 128,-1,3
 -54 -145 -54 -145 -36 -145 c 0,4,5
 -8 -145 -8 -145 6.5 -165.5 c 128,-1,6
 21 -186 21 -186 14 -217 c 0,7,8
 3 -262 3 -262 -42 -282 c 0,9,10
 -55 -288 -55 -288 -69 -288 c 0,11,12
 -98 -288 -98 -288 -112 -268 c 128,-1,13
 -126 -248 -126 -248 -119 -217 c 256,0,1
EndSplineSet
EndChar

StartChar: uni1C7A
Encoding: 298 7290 42
Width: 446
VWidth: 2048
Flags: W
LayerCount: 2
Fore
SplineSet
321 709 m 256,0,1
 328 740 328 740 351.5 760.5 c 128,-1,2
 375 781 375 781 404 781 c 0,3,4
 432 781 432 781 446.5 760.5 c 128,-1,5
 461 740 461 740 454 709 c 0,6,7
 443 663 443 663 397 644 c 0,8,9
 384 638 384 638 370 638 c 0,10,11
 351 638 351 638 338.5 647.5 c 128,-1,12
 326 657 326 657 321 673 c 128,-1,13
 316 689 316 689 321 709 c 256,0,1
160 15 m 256,14,15
 165 35 165 35 177.5 51.5 c 128,-1,16
 190 68 190 68 207.5 77.5 c 128,-1,17
 225 87 225 87 243 87 c 0,18,19
 271 87 271 87 285.5 66 c 128,-1,20
 300 45 300 45 293 15 c 0,21,22
 282 -31 282 -31 237 -51 c 0,23,24
 224 -57 224 -57 210 -57 c 0,25,26
 181 -57 181 -57 167 -36.5 c 128,-1,27
 153 -16 153 -16 160 15 c 256,14,15
EndSplineSet
EndChar

StartChar: uni1C7B
Encoding: 299 7291 43
Width: 703
VWidth: 2048
Flags: W
LayerCount: 2
Fore
SplineSet
401 538 m 0,0,1
 383 538 383 538 369 529.5 c 128,-1,2
 355 521 355 521 348 513 c 128,-1,3
 341 505 341 505 328 487 c 1,4,-1
 324 487 l 1,5,-1
 291 528 l 1,6,7
 319 573 319 573 347.5 597.5 c 128,-1,8
 376 622 376 622 417 622 c 0,9,10
 446 622 446 622 504 602 c 0,11,12
 509 600 509 600 517 596.5 c 128,-1,13
 525 593 525 593 531.5 590.5 c 128,-1,14
 538 588 538 588 546 585.5 c 128,-1,15
 554 583 554 583 562 582 c 128,-1,16
 570 581 570 581 577 581 c 0,17,18
 597 581 597 581 611 591.5 c 128,-1,19
 625 602 625 602 643 623 c 1,20,-1
 646 623 l 1,21,-1
 665 569 l 1,22,23
 635 528 635 528 609 512.5 c 128,-1,24
 583 497 583 497 560 497 c 0,25,26
 536 497 536 497 483.5 517.5 c 128,-1,27
 431 538 431 538 401 538 c 0,0,1
EndSplineSet
EndChar

StartChar: uni1C7C
Encoding: 300 7292 44
Width: 579
VWidth: 2048
Flags: W
LayerCount: 2
Fore
SplineSet
306 602 m 1,0,-1
 552 602 l 1,1,-1
 532 516 l 1,2,-1
 286 516 l 1,3,-1
 306 602 l 1,0,-1
EndSplineSet
EndChar

StartChar: uni1C7D
Encoding: 301 7293 45
Width: 985
VWidth: 2048
Flags: W
LayerCount: 2
Fore
SplineSet
805 355 m 0,0,1
 736 57 736 57 500 -84 c 1,2,-1
 496 -84 l 1,3,-1
 320 186 l 1,4,-1
 390 252 l 1,5,-1
 394 252 l 1,6,-1
 529 36 l 1,7,-1
 532 36 l 1,8,9
 584 73 584 73 627 138.5 c 128,-1,10
 670 204 670 204 698 285 c 1,11,12
 670 283 670 283 650 283 c 0,13,14
 508 283 508 283 428 382 c 0,15,16
 379 444 379 444 374 528 c 0,17,18
 371 570 371 570 381 614 c 0,19,20
 398 687 398 687 441 738 c 128,-1,21
 484 789 484 789 541 812 c 0,22,23
 579 827 579 827 620 827 c 0,24,25
 704 827 704 827 758 763 c 0,26,27
 837 667 837 667 824 481 c 0,28,29
 820 420 820 420 805 355 c 0,0,1
675 372 m 0,30,31
 695 372 695 372 722 375 c 1,32,33
 753 529 753 529 721 633 c 0,34,35
 688 739 688 739 605 738 c 0,36,37
 554 738 554 738 517 701 c 128,-1,38
 480 664 480 664 467 605 c 0,39,40
 445 510 445 510 501 442 c 0,41,42
 560 372 560 372 675 372 c 0,30,31
EndSplineSet
EndChar

StartChar: uni1C7E
Encoding: 302 7294 46
Width: 466
VWidth: 2048
Flags: W
LayerCount: 2
Fore
SplineSet
320 570 m 1,0,-1
 409 570 l 1,1,-1
 316 165 l 1,2,-1
 226 165 l 1,3,-1
 320 570 l 1,0,-1
EndSplineSet
EndChar

StartChar: uni1C7F
Encoding: 303 7295 47
Width: 810
VWidth: 2048
Flags: W
LayerCount: 2
Fore
SplineSet
388 570 m 1,0,-1
 477 570 l 1,1,-1
 384 165 l 1,2,-1
 295 165 l 1,3,-1
 388 570 l 1,0,-1
597 570 m 1,4,-1
 686 570 l 1,5,-1
 593 165 l 1,6,-1
 503 165 l 1,7,-1
 597 570 l 1,4,-1
EndSplineSet
EndChar

StartChar: exclam
Encoding: 33 33 48
Width: 206
VWidth: 944
Flags: W
LayerCount: 2
Fore
SplineSet
313 608 m 2,0,-1
 131 -73 l 1,1,-1
 72 -73 l 1,2,-1
 192 599 l 2,3,4
 200 633 200 633 223.5 655 c 128,-1,5
 247 677 247 677 272 677 c 0,6,7
 296 677 296 677 308 658.5 c 128,-1,8
 320 640 320 640 313 608 c 2,0,-1
128 -226 m 0,9,10
 121 -257 121 -257 99.5 -278.5 c 128,-1,11
 78 -300 78 -300 51 -300 c 0,12,13
 19 -300 19 -300 8 -278 c 128,-1,14
 -3 -256 -3 -256 4 -226 c 0,15,16
 21 -151 21 -151 85 -151 c 0,17,18
 110 -151 110 -151 122.5 -174 c 128,-1,19
 135 -197 135 -197 128 -226 c 0,9,10
EndSplineSet
EndChar

StartChar: quotedbl
Encoding: 34 34 49
Width: 320
VWidth: 1112
Flags: W
LayerCount: 2
Fore
SplineSet
319 959 m 1,0,-1
 225 799 l 1,1,-1
 268 713 l 1,2,-1
 328 799 l 1,3,-1
 320 963 l 1,4,-1
 319 959 l 1,0,-1
456 959 m 1,5,-1
 362 799 l 1,6,-1
 405 713 l 1,7,-1
 465 799 l 1,8,-1
 458 963 l 1,9,-1
 456 959 l 1,5,-1
EndSplineSet
EndChar

StartChar: numbersign
Encoding: 35 35 50
Width: 811
VWidth: 946
Flags: W
LayerCount: 2
Fore
SplineSet
543 504 m 1,0,-1
 428 318 l 1,1,-1
 260 318 l 1,2,-1
 238 270 l 1,3,-1
 394 270 l 1,4,-1
 311 150 l 1,5,-1
 216 150 l 1,6,-1
 208 90 l 1,7,-1
 269 90 l 1,8,-1
 152 -102 l 1,9,-1
 208 -102 l 1,10,-1
 315 72 l 1,11,-1
 466 72 l 1,12,-1
 332 -96 l 1,13,-1
 395 -114 l 1,14,-1
 533 72 l 1,15,-1
 644 72 l 1,16,-1
 661 144 l 1,17,-1
 593 138 l 1,18,-1
 675 252 l 1,19,-1
 776 258 l 1,20,-1
 803 324 l 1,21,-1
 708 324 l 1,22,-1
 804 498 l 1,23,-1
 744 504 l 1,24,-1
 649 336 l 1,25,-1
 486 330 l 1,26,-1
 585 492 l 1,27,-1
 543 504 l 1,0,-1
474 276 m 1,28,29
 609 282 609 282 612 270 c 1,30,-1
 527 144 l 1,31,-1
 376 144 l 1,32,-1
 474 276 l 1,28,29
EndSplineSet
EndChar

StartChar: dollar
Encoding: 36 36 51
Width: 660
VWidth: 853
Flags: W
LayerCount: 2
Fore
SplineSet
552 830 m 1,0,-1
 608 830 l 1,1,-1
 595 775 l 1,2,3
 712 766 712 766 735 672 c 0,4,5
 746 630 746 630 733 573 c 1,6,-1
 658 573 l 1,7,8
 675 652 675 652 629 687 c 0,9,10
 610 701 610 701 578 703 c 1,11,-1
 519 448 l 1,12,13
 597 424 597 424 633 399 c 0,14,15
 702 349 702 349 678 241 c 1,16,17
 645 112 645 112 547 54 c 0,18,19
 494 24 494 24 420 18 c 1,20,-1
 396 -87 l 1,21,-1
 340 -87 l 1,22,-1
 364 18 l 1,23,24
 219 28 219 28 206 148 c 0,25,26
 202 186 202 186 214 234 c 0,27,28
 215 240 215 240 216 246 c 0,29,30
 217 250 217 250 219 255 c 1,31,-1
 294 255 l 1,32,-1
 291 227 l 2,33,34
 282 166 282 166 293 147 c 1,35,36
 315 98 315 98 381 89 c 1,37,-1
 445 367 l 1,38,39
 363 396 363 396 337 421 c 0,40,41
 281 473 281 473 304 570 c 0,42,43
 339 720 339 720 482 763 c 0,44,45
 508 771 508 771 539 775 c 1,46,-1
 552 830 l 1,0,-1
471 456 m 1,47,-1
 528 702 l 1,48,49
 433 688 433 688 399 611 c 1,50,-1
 389 580 l 1,51,52
 368 488 368 488 471 456 c 1,47,-1
504 358 m 1,53,-1
 442 89 l 1,54,55
 502 97 502 97 539 127 c 0,56,57
 588 168 588 168 602 229 c 0,58,59
 616 291 616 291 579 322 c 0,60,61
 555 340 555 340 504 358 c 1,53,-1
EndSplineSet
EndChar

StartChar: percent
Encoding: 37 37 52
Width: 644
VWidth: 930
Flags: W
LayerCount: 2
Fore
SplineSet
205 -278 m 1,0,-1
 170 -226 l 1,1,-1
 764 584 l 1,2,-1
 799 533 l 1,3,-1
 205 -278 l 1,0,-1
447.5 498 m 128,-1,5
 442 514 442 514 427 514 c 0,6,7
 410 514 410 514 398 497.5 c 128,-1,8
 386 481 386 481 381 459 c 0,9,10
 376 437 376 437 381 421.5 c 128,-1,11
 386 406 386 406 403 406 c 0,12,13
 418 406 418 406 430.5 423 c 128,-1,14
 443 440 443 440 447 459 c 0,15,4
 453 482 453 482 447.5 498 c 128,-1,5
495 456 m 0,16,17
 484 410 484 410 453.5 369 c 128,-1,18
 423 328 423 328 388 328 c 0,19,20
 348 328 348 328 335.5 365.5 c 128,-1,21
 323 403 323 403 336 456 c 0,22,23
 348 508 348 508 378 547.5 c 128,-1,24
 408 587 408 587 448 587 c 0,25,26
 483 587 483 587 495.5 549.5 c 128,-1,27
 508 512 508 512 495 456 c 0,16,17
582 -60 m 128,-1,29
 577 -44 577 -44 563 -44 c 0,30,31
 546 -44 546 -44 533.5 -60.5 c 128,-1,32
 521 -77 521 -77 516 -99 c 0,33,34
 511 -121 511 -121 516 -136.5 c 128,-1,35
 521 -152 521 -152 538 -152 c 0,36,37
 553 -152 553 -152 565 -135 c 128,-1,38
 577 -118 577 -118 582 -99 c 0,39,28
 587 -76 587 -76 582 -60 c 128,-1,29
631 -96 m 0,40,41
 620 -142 620 -142 590 -183 c 128,-1,42
 560 -224 560 -224 524 -224 c 0,43,44
 484 -224 484 -224 472 -186.5 c 128,-1,45
 460 -149 460 -149 472 -96 c 0,46,47
 484 -44 484 -44 514 -4.5 c 128,-1,48
 544 35 544 35 584 35 c 0,49,50
 620 35 620 35 632 -2.5 c 128,-1,51
 644 -40 644 -40 631 -96 c 0,40,41
EndSplineSet
EndChar

StartChar: ampersand
Encoding: 38 38 53
Width: 902
VWidth: 982
Flags: W
LayerCount: 2
Fore
SplineSet
523 39 m 1,0,1
 507 33 507 33 494.5 33 c 128,-1,2
 482 33 482 33 472 35 c 0,3,4
 383 35 383 35 343 56 c 1,5,6
 279 78 279 78 246 117 c 0,7,8
 239 128 239 128 236 145 c 128,-1,9
 233 162 233 162 237 180 c 0,10,11
 237 181 237 181 238 182 c 0,12,13
 244 207 244 207 270 235 c 1,14,15
 288 248 288 248 324 270 c 128,-1,16
 360 292 360 292 376 304 c 0,17,18
 403 320 403 320 427 334 c 1,19,20
 436 268 436 268 452 219 c 1,21,22
 473 111 473 111 523 39 c 1,0,1
695 132 m 0,23,24
 696 134 696 134 696.5 136.5 c 0,25,-1
 697 139 l 0,26,27
 672 175 672 175 671.5 175 c 128,-1,28
 671 175 671 175 671 174 c 0,29,30
 629 138 l 2,31,-1
 630 135 l 1,32,33
 629 133 629 133 629 132 c 0,34,35
 615 98 615 98 594 73 c 0,36,37
 587 69 587 69 580 65 c 0,38,39
 578 64 578 64 573 63 c 0,40,41
 535 129 535 129 518 219 c 1,42,43
 497 282 497 282 488 373 c 1,44,45
 543 409 543 409 609 461 c 0,46,47
 619 469 619 469 668 512 c 0,48,49
 778 607 778 607 824 726 c 1,50,51
 833 792 833 792 808 838 c 0,52,53
 805 844 805 844 802 848 c 2,54,-1
 777 884 l 2,55,56
 751 921 751 921 701 929 c 0,57,58
 665 935 665 935 652 935 c 0,59,60
 632 935 632 935 597 916 c 0,61,62
 584 909 584 909 576 901 c 2,63,-1
 535 866 l 2,64,65
 521 853 521 853 517 840 c 0,66,67
 516 834 516 834 511 825 c 128,-1,68
 506 816 506 816 505 812.5 c 128,-1,69
 504 809 504 809 500.5 802 c 128,-1,70
 497 795 497 795 497 793 c 128,-1,71
 497 791 497 791 485 771 c 1,72,-1
 450 672 l 1,73,-1
 430 576 l 1,74,-1
 417 456 l 1,75,76
 418 422 418 422 421 391 c 1,77,78
 407 383 407 383 392 374 c 0,79,80
 376 362 376 362 332 335.5 c 128,-1,81
 288 309 288 309 266 289 c 0,82,83
 222 251 222 251 219 249 c 0,84,85
 179 213 179 213 172 182 c 0,86,87
 172 181 172 181 171 180 c 0,88,89
 167 162 167 162 170 146 c 128,-1,90
 173 130 173 130 177.5 121.5 c 128,-1,91
 182 113 182 113 192 98 c 2,92,-1
 221 58 l 2,93,94
 254 11 254 11 327 -14 c 1,95,96
 367 -35 367 -35 456 -35 c 1,97,98
 466 -37 466 -37 475 -37 c 0,99,100
 499 -37 499 -37 533 -20 c 0,101,102
 548 -12 548 -12 556 -8 c 1,103,104
 583 -44 583 -44 619 -71 c 0,105,106
 626 -76 626 -76 637 -81.5 c 128,-1,107
 648 -87 648 -87 664 -92 c 2,108,-1
 685 -98 l 1,109,-1
 726 -63 l 1,110,-1
 701 -28 l 1,111,-1
 673 -19 l 2,112,113
 665 -17 665 -17 653.5 -11.5 c 128,-1,114
 642 -6 642 -6 635 -1 c 0,115,116
 620 11 620 11 606 24 c 1,117,-1
 641 54 l 2,118,119
 675 83 675 83 695 132 c 0,23,24
577 825 m 128,-1,121
 582 834 582 834 583 839 c 128,-1,122
 584 844 584 844 586 848 c 0,123,124
 617 865 617 865 636 865 c 0,125,126
 649 865 649 865 686 858.5 c 128,-1,127
 723 852 723 852 747 829 c 1,128,129
 767 785 767 785 759 726 c 1,130,131
 717 618 717 618 623 530 c 1,132,133
 563 482 563 482 514 450 c 0,134,135
 500 441 500 441 484 430 c 1,136,137
 483 443 483 443 483 456 c 1,138,-1
 496 576 l 1,139,-1
 516 672 l 1,140,-1
 550 771 l 1,141,142
 562 791 562 791 562.5 793 c 128,-1,143
 563 795 563 795 566.5 802 c 128,-1,144
 570 809 570 809 571 812.5 c 128,-1,120
 572 816 572 816 577 825 c 128,-1,121
EndSplineSet
EndChar

StartChar: quotesingle
Encoding: 39 39 54
Width: 300
VWidth: 1204
Flags: W
LayerCount: 2
Fore
SplineSet
389 959 m 1,0,-1
 295 799 l 1,1,-1
 338 713 l 1,2,-1
 398 799 l 1,3,-1
 390 963 l 1,4,-1
 389 959 l 1,0,-1
EndSplineSet
EndChar

StartChar: parenleft
Encoding: 40 40 55
Width: 652
VWidth: 1132
Flags: W
LayerCount: 2
Fore
SplineSet
359 -59 m 1,0,-1
 308 -108 l 1,1,2
 221 -23 221 -23 197.5 93 c 128,-1,3
 174 209 174 209 207 352 c 0,4,5
 265 602 265 602 511 828 c 1,6,-1
 548 784 l 1,7,8
 439 687 439 687 367 578.5 c 128,-1,9
 295 470 295 470 268 354 c 0,10,11
 232 199 232 199 265 97 c 0,12,13
 284 42 284 42 359 -59 c 1,0,-1
EndSplineSet
EndChar

StartChar: parenright
Encoding: 41 41 56
Width: 580
VWidth: 1133
Flags: W
LayerCount: 2
Fore
SplineSet
626 352 m 0,0,1
 591 202 591 202 513 83.5 c 128,-1,2
 435 -35 435 -35 304 -124 c 1,3,-1
 275 -73 l 1,4,5
 401 35 401 35 442 86 c 0,6,7
 526 192 526 192 564 354 c 0,8,9
 591 473 591 473 569.5 585 c 128,-1,10
 548 697 548 697 483 799 c 1,11,-1
 540 846 l 1,12,13
 616 725 616 725 637 607 c 128,-1,14
 658 489 658 489 626 352 c 0,0,1
EndSplineSet
EndChar

StartChar: asterisk
Encoding: 42 42 57
Width: 666
VWidth: 912
Flags: W
LayerCount: 2
Fore
SplineSet
368 122 m 1,0,-1
 539 0 l 1,1,-1
 485 198 l 1,2,-1
 648 328 l 1,3,-1
 475 310 l 1,4,-1
 484 508 l 1,5,-1
 358 320 l 1,6,-1
 169 340 l 1,7,-1
 272 178 l 1,8,-1
 145 0 l 1,9,-1
 368 122 l 1,0,-1
EndSplineSet
EndChar

StartChar: plus
Encoding: 43 43 58
Width: 743
VWidth: 856
Flags: W
LayerCount: 2
Fore
SplineSet
206 267 m 5,0,-1
 396 265 l 5,1,-1
 331 -10 l 5,2,-1
 392 26 l 5,3,-1
 445 61 l 5,4,-1
 491 260 l 5,5,-1
 732 261 l 5,6,-1
 699 360 l 5,7,-1
 514 360 l 5,8,-1
 573 616 l 5,9,-1
 466 550 l 5,10,-1
 422 360 l 5,11,-1
 156 360 l 5,12,-1
 206 267 l 5,0,-1
EndSplineSet
EndChar

StartChar: comma
Encoding: 44 44 59
Width: 231
VWidth: 649
Flags: W
LayerCount: 2
Fore
SplineSet
118 129 m 0,0,1
 77 134 77 134 65 81 c 0,2,-1
 70 22 l 0,3,-1
 127 -24 l 0,4,5
 102 -62 102 -62 61 -144 c 1,6,7
 154 -44 l 0,8,9
 202 23 202 23 189 76 c 0,10,11
 177 121 177 121 118 129 c 0,0,1
EndSplineSet
EndChar

StartChar: hyphen
Encoding: 45 45 60
Width: 631
VWidth: 884
Flags: W
LayerCount: 2
Fore
SplineSet
499 7 m 1,0,-1
 202 7 l 1,1,-1
 249 73 l 1,2,-1
 552 73 l 1,3,-1
 499 7 l 1,0,-1
EndSplineSet
EndChar

StartChar: period
Encoding: 46 46 61
Width: 277
VWidth: 666
Flags: W
LayerCount: 2
Fore
SplineSet
64 -506 m 0,0,1
 59 -527 59 -527 42 -545 c 128,-1,2
 25 -563 25 -563 4 -563 c 0,3,4
 -21 -563 -21 -563 -30 -546.5 c 128,-1,5
 -39 -530 -39 -530 -33 -506 c 0,6,7
 -28 -483 -28 -483 -11 -465.5 c 128,-1,8
 6 -448 6 -448 30 -448 c 0,9,10
 51 -448 51 -448 60.5 -464.5 c 128,-1,11
 70 -481 70 -481 64 -506 c 0,0,1
EndSplineSet
EndChar

StartChar: slash
Encoding: 47 47 62
Width: 806
VWidth: 929
Flags: W
LayerCount: 2
Fore
SplineSet
148 -36 m 1,0,-1
 95 16 l 1,1,-1
 842 827 l 1,2,-1
 895 775 l 1,3,-1
 148 -36 l 1,0,-1
EndSplineSet
EndChar

StartChar: colon
Encoding: 58 58 63
Width: 501
VWidth: 1139
Flags: W
LayerCount: 2
Fore
SplineSet
387 573 m 0,0,1
 380 542 380 542 355 515.5 c 128,-1,2
 330 489 330 489 299 489 c 0,3,4
 263 489 263 489 250 513.5 c 128,-1,5
 237 538 237 538 245 573 c 0,6,7
 253 607 253 607 277.5 632.5 c 128,-1,8
 302 658 302 658 338 658 c 0,9,10
 369 658 369 658 382 634 c 128,-1,11
 395 610 395 610 387 573 c 0,0,1
233 45 m 0,12,13
 227 20 227 20 206.5 -2 c 128,-1,14
 186 -24 186 -24 161 -24 c 0,15,16
 131 -24 131 -24 120 -4 c 128,-1,17
 109 16 109 16 116 45 c 0,18,19
 122 72 122 72 142 93.5 c 128,-1,20
 162 115 162 115 193 115 c 0,21,22
 219 115 219 115 229.5 94.5 c 128,-1,23
 240 74 240 74 233 45 c 0,12,13
EndSplineSet
EndChar

StartChar: semicolon
Encoding: 59 59 64
Width: 597
VWidth: 1179
Flags: W
LayerCount: 2
Fore
SplineSet
481 679 m 0,0,1
 476 657 476 657 458 638 c 128,-1,2
 440 619 440 619 418 619 c 0,3,4
 392 619 392 619 382.5 636 c 128,-1,5
 373 653 373 653 379 679 c 0,6,7
 385 703 385 703 402 721 c 128,-1,8
 419 739 419 739 446 739 c 0,9,10
 468 739 468 739 477.5 722 c 128,-1,11
 487 705 487 705 481 679 c 0,0,1
310 205 m 1,13,-1
 203 92 l 1,14,15
 441 184 441 184 375.5 248.5 c 128,-1,12
 310 313 310 313 310 205 c 1,13,-1
EndSplineSet
EndChar

StartChar: less
Encoding: 60 60 65
Width: 624
VWidth: 1130
Flags: W
LayerCount: 2
Fore
SplineSet
230 328 m 1,0,-1
 703 688 l 1,1,-1
 724 634 l 1,2,-1
 322 316 l 1,3,-1
 572 -50 l 1,4,-1
 511 -98 l 1,5,-1
 230 328 l 1,0,-1
EndSplineSet
EndChar

StartChar: equal
Encoding: 61 61 66
Width: 885
VWidth: 1163
Flags: W
LayerCount: 2
Fore
SplineSet
369 135 m 1,0,-1
 803 135 l 1,1,-1
 780 238 l 1,2,-1
 338 238 l 1,3,-1
 369 135 l 1,0,-1
432 516 m 1,4,-1
 866 516 l 1,5,-1
 843 619 l 1,6,-1
 401 619 l 1,7,-1
 432 516 l 1,4,-1
EndSplineSet
EndChar

StartChar: greater
Encoding: 62 62 67
Width: 1006
VWidth: 1126
Flags: W
LayerCount: 2
Fore
SplineSet
1012 318 m 1,0,-1
 704 678 l 1,1,-1
 658 624 l 1,2,-1
 914 306 l 1,3,-1
 495 -60 l 1,4,-1
 534 -108 l 1,5,-1
 1012 318 l 1,0,-1
EndSplineSet
EndChar

StartChar: question
Encoding: 63 63 68
Width: 835
VWidth: 1038
Flags: W
LayerCount: 2
Fore
SplineSet
971 663 m 0,0,1
 945 550 945 550 777.5 407.5 c 128,-1,2
 610 265 610 265 599 217 c 0,3,4
 589 172 589 172 604 139 c 0,5,6
 609 129 609 129 622 117 c 1,7,-1
 532 62 l 1,8,9
 519 85 519 85 516 100 c 0,10,11
 500 152 500 152 514 212 c 0,12,13
 532 290 532 290 760 492 c 0,14,15
 865 584 865 584 883 663 c 0,16,17
 897 725 897 725 863.5 776.5 c 128,-1,18
 830 828 830 828 772 828 c 256,19,20
 714 828 714 828 665.5 794 c 128,-1,21
 617 760 617 760 596 712 c 0,22,23
 581 674 581 674 592 652 c 0,24,25
 599 639 599 639 615 633 c 1,26,27
 639 665 639 665 674 665 c 0,28,29
 739 665 739 665 722 592 c 0,30,31
 713 554 713 554 683 533.5 c 128,-1,32
 653 513 653 513 613 513 c 0,33,34
 559 513 559 513 528 558 c 0,35,36
 488 615 488 615 510 710 c 0,37,38
 530 798 530 798 615 859 c 128,-1,39
 700 920 700 920 791 920 c 0,40,41
 893 920 893 920 944.5 846.5 c 128,-1,42
 996 773 996 773 971 663 c 0,0,1
690 618.5 m 128,-1,44
 685 628 685 628 672 628 c 0,45,46
 657 628 657 628 647.5 618.5 c 128,-1,47
 638 609 638 609 635 595 c 256,48,49
 632 581 632 581 637.5 571.5 c 128,-1,50
 643 562 643 562 657 562 c 0,51,52
 684 562 684 562 692 594 c 0,53,43
 695 609 695 609 690 618.5 c 128,-1,44
602 -110 m 0,54,55
 583 -193 583 -193 511 -193 c 0,56,57
 474 -193 474 -193 459.5 -169.5 c 128,-1,58
 445 -146 445 -146 454 -108 c 0,59,60
 463 -71 463 -71 487 -45.5 c 128,-1,61
 511 -20 511 -20 551 -20 c 0,62,63
 583 -20 583 -20 597 -46.5 c 128,-1,64
 611 -73 611 -73 602 -110 c 0,54,55
570.5 -70 m 128,-1,66
 563 -56 563 -56 546 -56 c 0,67,68
 525 -56 525 -56 511.5 -69 c 128,-1,69
 498 -82 498 -82 494 -102 c 256,70,71
 489 -122 489 -122 496.5 -135 c 128,-1,72
 504 -148 504 -148 524 -148 c 0,73,74
 563 -148 563 -148 573 -104 c 0,75,65
 578 -84 578 -84 570.5 -70 c 128,-1,66
EndSplineSet
EndChar

StartChar: at
Encoding: 64 64 69
Width: 820
VWidth: 1051
Flags: W
LayerCount: 2
Fore
SplineSet
524 366 m 1,0,-1
 322 303 l 1,1,-1
 280 160 l 1,2,-1
 309 12 l 1,3,-1
 434 -6 l 1,4,-1
 595 115 l 1,5,-1
 619 21 l 1,6,-1
 725 7 l 1,7,8
 833 314 833 314 732 493 c 128,-1,9
 631 672 631 672 460 620.5 c 128,-1,10
 289 569 289 569 172 346 c 128,-1,11
 55 123 55 123 251 -126 c 1,12,-1
 361 -93 l 1,13,14
 102 99 102 99 211.5 303 c 128,-1,15
 321 507 321 507 468 543 c 0,16,17
 614 579 614 579 678.5 424.5 c 128,-1,18
 743 270 743 270 669 70 c 1,19,-1
 594 290 l 1,20,-1
 540 254 l 1,21,-1
 576 158 l 1,22,-1
 461 75 l 1,23,-1
 391 79 l 1,24,-1
 358 173 l 1,25,-1
 396 281 l 1,26,-1
 523 326 l 1,27,-1
 524 366 l 1,0,-1
EndSplineSet
EndChar
